G04 Layer: TopSilkLayer*
G04 EasyEDA v6.1.49, Tue, 28 May 2019 14:16:05 GMT*
G04 625ac418817b4d458788558be5a2e594,cfe1dd9c90504c3bbdd6ef614714b9c7,10*
G04 Gerber Generator version 0.2*
G04 Scale: 100 percent, Rotated: No, Reflected: No *
G04 Dimensions in millimeters *
G04 leading zeros omitted , absolute positions ,3 integer and 3 decimal *
%FSLAX33Y33*%
%MOMM*%
G90*
G71D02*

%ADD10C,0.254000*%
%ADD22C,0.150114*%
%ADD23C,0.119990*%
%ADD24C,0.249999*%
%ADD25C,0.127000*%
%ADD26C,0.152400*%
%ADD27C,0.150012*%
%ADD28C,0.203200*%
%ADD29C,0.177800*%
%ADD30C,0.180000*%
%ADD31C,0.100000*%
%ADD32C,0.159995*%

%LPD*%
G54D10*
G01X14351Y37211D02*
G01X14351Y36957D01*
G01X14351Y37211D01*
G01X22987Y37211D01*
G01X22987Y33147D01*
G01X14351Y33147D01*
G01X14351Y36957D01*
G01X14351Y36957D01*
G54D22*
G01X7489Y36890D02*
G01X11290Y36890D01*
G01X11290Y47790D01*
G01X7489Y47790D01*
G01X7489Y36890D01*
G01X5789Y36890D01*
G01X5789Y47790D01*
G01X7489Y47790D01*
G01X7089Y47790D01*
G01X11290Y41091D02*
G01X7489Y41091D01*
G01X7789Y41091D01*
G54D10*
G01X76454Y45720D02*
G01X76454Y30226D01*
G01X73914Y30226D01*
G01X73914Y45974D01*
G01X76454Y45974D01*
G01X76454Y45720D01*
G54D23*
G01X74295Y18288D02*
G01X74295Y18288D01*
G01X79629Y18288D01*
G01X79629Y7620D01*
G01X74295Y7620D01*
G01X74295Y7620D01*
G01X74295Y18288D01*
G01X76835Y17780D02*
G01X76835Y15494D01*
G01X74549Y15494D01*
G01X74549Y15494D01*
G54D24*
G01X73967Y18869D02*
G01X73967Y18869D01*
G01X103167Y18869D01*
G01X103167Y3418D01*
G01X73967Y3418D01*
G01X73967Y18869D01*
G54D10*
G01X9827Y14269D02*
G01X1826Y14269D01*
G01X9827Y4269D02*
G01X1826Y4269D01*
G01X1826Y14269D02*
G01X1826Y4269D01*
G01X9827Y14269D02*
G01X9827Y4269D01*
G01X2357Y14269D02*
G01X2357Y4269D01*
G01X7426Y14211D02*
G01X7426Y4330D01*
G01X9827Y25953D02*
G01X1826Y25953D01*
G01X9827Y15953D02*
G01X1826Y15953D01*
G01X1826Y25953D02*
G01X1826Y15953D01*
G01X9827Y25953D02*
G01X9827Y15953D01*
G01X2357Y25953D02*
G01X2357Y15953D01*
G01X7426Y25895D02*
G01X7426Y16014D01*
G01X15621Y43053D02*
G01X20701Y43053D01*
G01X20701Y43053D02*
G01X20701Y42291D01*
G01X20701Y42291D02*
G01X20701Y41529D01*
G01X20701Y41529D02*
G01X15621Y41529D01*
G01X15621Y41529D02*
G01X15621Y42291D01*
G01X15621Y42291D02*
G01X15621Y43053D01*
G01X20701Y42291D02*
G01X20955Y42291D01*
G01X15621Y42291D02*
G01X15367Y42291D01*
G54D25*
G01X71501Y44704D02*
G01X71501Y29464D01*
G01X51181Y29464D01*
G01X51181Y44704D01*
G01X71501Y44704D01*
G01X71628Y23368D02*
G01X71628Y8128D01*
G01X51308Y8128D01*
G01X51308Y23368D01*
G01X71628Y23368D01*
G01X48641Y23368D02*
G01X48641Y8128D01*
G01X28321Y8128D01*
G01X28321Y23368D01*
G01X48641Y23368D01*
G01X48641Y44704D02*
G01X48641Y29464D01*
G01X28321Y29464D01*
G01X28321Y44704D01*
G01X48641Y44704D01*
G54D10*
G01X33147Y27343D02*
G01X43815Y27343D01*
G01X43815Y24295D01*
G01X33147Y24295D01*
G01X33147Y27343D01*
G01X56134Y27216D02*
G01X66802Y27216D01*
G01X66802Y24168D01*
G01X56134Y24168D01*
G01X56134Y27216D01*
G01X33147Y48806D02*
G01X43815Y48806D01*
G01X43815Y45758D01*
G01X33147Y45758D01*
G01X33147Y48806D01*
G01X56007Y48806D02*
G01X66675Y48806D01*
G01X66675Y45758D01*
G01X56007Y45758D01*
G01X56007Y48806D01*
G01X13449Y47117D02*
G01X13449Y50165D01*
G01X19037Y50165D01*
G01X19037Y47117D01*
G01X13449Y47117D01*
G01X19315Y8887D02*
G01X19315Y29588D01*
G01X25030Y29588D01*
G01X25030Y8760D01*
G01X19315Y8760D01*
G01X12457Y19224D02*
G01X12457Y29638D01*
G01X17882Y29638D01*
G01X17882Y18970D01*
G01X12457Y18970D01*
G01X12457Y19224D01*
G01X79121Y32639D02*
G01X79121Y37719D01*
G01X79121Y37719D02*
G01X79883Y37719D01*
G01X79883Y37719D02*
G01X80645Y37719D01*
G01X80645Y37719D02*
G01X80645Y32639D01*
G01X80645Y32639D02*
G01X79883Y32639D01*
G01X79883Y32639D02*
G01X79121Y32639D01*
G01X79883Y37719D02*
G01X79883Y37973D01*
G01X79883Y32639D02*
G01X79883Y32385D01*
G01X81534Y32639D02*
G01X81534Y37719D01*
G01X81534Y37719D02*
G01X82296Y37719D01*
G01X82296Y37719D02*
G01X83058Y37719D01*
G01X83058Y37719D02*
G01X83058Y32639D01*
G01X83058Y32639D02*
G01X82296Y32639D01*
G01X82296Y32639D02*
G01X81534Y32639D01*
G01X82296Y37719D02*
G01X82296Y37973D01*
G01X82296Y32639D02*
G01X82296Y32385D01*
G01X13335Y10541D02*
G01X13335Y15621D01*
G01X13335Y15621D02*
G01X14097Y15621D01*
G01X14097Y15621D02*
G01X14859Y15621D01*
G01X14859Y15621D02*
G01X14859Y10541D01*
G01X14859Y10541D02*
G01X14097Y10541D01*
G01X14097Y10541D02*
G01X13335Y10541D01*
G01X14097Y15621D02*
G01X14097Y15875D01*
G01X14097Y10541D02*
G01X14097Y10287D01*
G01X16002Y10541D02*
G01X16002Y15621D01*
G01X16002Y15621D02*
G01X16764Y15621D01*
G01X16764Y15621D02*
G01X17526Y15621D01*
G01X17526Y15621D02*
G01X17526Y10541D01*
G01X17526Y10541D02*
G01X16764Y10541D01*
G01X16764Y10541D02*
G01X16002Y10541D01*
G01X16764Y15621D02*
G01X16764Y15875D01*
G01X16764Y10541D02*
G01X16764Y10287D01*
G01X82169Y45326D02*
G01X79121Y45326D01*
G01X79121Y50914D01*
G01X82169Y50914D01*
G01X82169Y45326D01*
G01X70358Y50165D02*
G01X75438Y50165D01*
G01X75438Y50165D02*
G01X75438Y49403D01*
G01X75438Y49403D02*
G01X75438Y48641D01*
G01X75438Y48641D02*
G01X70358Y48641D01*
G01X70358Y48641D02*
G01X70358Y49403D01*
G01X70358Y49403D02*
G01X70358Y50165D01*
G01X75438Y49403D02*
G01X75692Y49403D01*
G01X70358Y49403D02*
G01X70104Y49403D01*
G54D26*
G01X15476Y39189D02*
G01X15476Y38100D01*
G01X15113Y39189D02*
G01X15839Y39189D01*
G01X16182Y38826D02*
G01X16182Y38100D01*
G01X16182Y38516D02*
G01X16235Y38671D01*
G01X16339Y38775D01*
G01X16443Y38826D01*
G01X16598Y38826D01*
G01X16941Y39189D02*
G01X16992Y39138D01*
G01X17045Y39189D01*
G01X16992Y39243D01*
G01X16941Y39189D01*
G01X16992Y38826D02*
G01X16992Y38100D01*
G01X17388Y38826D02*
G01X17388Y38100D01*
G01X17388Y38618D02*
G01X17543Y38775D01*
G01X17647Y38826D01*
G01X17805Y38826D01*
G01X17907Y38775D01*
G01X17960Y38618D01*
G01X17960Y38100D01*
G01X17960Y38618D02*
G01X18115Y38775D01*
G01X18219Y38826D01*
G01X18376Y38826D01*
G01X18478Y38775D01*
G01X18531Y38618D01*
G01X18531Y38100D01*
G01X18874Y38826D02*
G01X18874Y38100D01*
G01X18874Y38618D02*
G01X19029Y38775D01*
G01X19133Y38826D01*
G01X19291Y38826D01*
G01X19392Y38775D01*
G01X19446Y38618D01*
G01X19446Y38100D01*
G01X19446Y38618D02*
G01X19601Y38775D01*
G01X19705Y38826D01*
G01X19862Y38826D01*
G01X19964Y38775D01*
G01X20017Y38618D01*
G01X20017Y38100D01*
G01X20360Y38516D02*
G01X20982Y38516D01*
G01X20982Y38618D01*
G01X20932Y38722D01*
G01X20878Y38775D01*
G01X20777Y38826D01*
G01X20619Y38826D01*
G01X20515Y38775D01*
G01X20411Y38671D01*
G01X20360Y38516D01*
G01X20360Y38412D01*
G01X20411Y38254D01*
G01X20515Y38150D01*
G01X20619Y38100D01*
G01X20777Y38100D01*
G01X20878Y38150D01*
G01X20982Y38254D01*
G01X21325Y38826D02*
G01X21325Y38100D01*
G01X21325Y38516D02*
G01X21379Y38671D01*
G01X21483Y38775D01*
G01X21587Y38826D01*
G01X21742Y38826D01*
G01X11811Y40076D02*
G01X12903Y40076D01*
G01X12903Y40076D02*
G01X12903Y40698D01*
G01X11811Y41041D02*
G01X12903Y41041D01*
G01X11811Y41041D02*
G01X12903Y41457D01*
G01X11811Y41874D02*
G01X12903Y41457D01*
G01X11811Y41874D02*
G01X12903Y41874D01*
G01X11811Y42321D02*
G01X11811Y42892D01*
G01X12227Y42580D01*
G01X12227Y42735D01*
G01X12278Y42839D01*
G01X12331Y42892D01*
G01X12486Y42943D01*
G01X12590Y42943D01*
G01X12745Y42892D01*
G01X12849Y42788D01*
G01X12903Y42631D01*
G01X12903Y42476D01*
G01X12849Y42321D01*
G01X12799Y42268D01*
G01X12694Y42217D01*
G01X11811Y43911D02*
G01X11811Y43390D01*
G01X12278Y43340D01*
G01X12227Y43390D01*
G01X12174Y43545D01*
G01X12174Y43703D01*
G01X12227Y43858D01*
G01X12331Y43962D01*
G01X12486Y44013D01*
G01X12590Y44013D01*
G01X12745Y43962D01*
G01X12849Y43858D01*
G01X12903Y43703D01*
G01X12903Y43545D01*
G01X12849Y43390D01*
G01X12799Y43340D01*
G01X12694Y43286D01*
G01X11811Y44668D02*
G01X11861Y44513D01*
G01X12019Y44409D01*
G01X12278Y44356D01*
G01X12433Y44356D01*
G01X12694Y44409D01*
G01X12849Y44513D01*
G01X12903Y44668D01*
G01X12903Y44772D01*
G01X12849Y44927D01*
G01X12694Y45031D01*
G01X12433Y45085D01*
G01X12278Y45085D01*
G01X12019Y45031D01*
G01X11861Y44927D01*
G01X11811Y44772D01*
G01X11811Y44668D01*
G54D27*
G01X72644Y47625D02*
G01X72644Y46669D01*
G01X73281Y47625D02*
G01X73281Y46669D01*
G01X72644Y47170D02*
G01X73281Y47170D01*
G01X74261Y47396D02*
G01X74216Y47487D01*
G01X74124Y47579D01*
G01X74035Y47625D01*
G01X73853Y47625D01*
G01X73761Y47579D01*
G01X73670Y47487D01*
G01X73626Y47396D01*
G01X73581Y47261D01*
G01X73581Y47033D01*
G01X73626Y46896D01*
G01X73670Y46807D01*
G01X73761Y46715D01*
G01X73853Y46669D01*
G01X74035Y46669D01*
G01X74124Y46715D01*
G01X74216Y46807D01*
G01X74261Y46896D01*
G01X74561Y47078D02*
G01X75379Y47078D01*
G01X75953Y47625D02*
G01X75816Y47579D01*
G01X75725Y47442D01*
G01X75679Y47216D01*
G01X75679Y47078D01*
G01X75725Y46852D01*
G01X75816Y46715D01*
G01X75953Y46669D01*
G01X76045Y46669D01*
G01X76179Y46715D01*
G01X76271Y46852D01*
G01X76316Y47078D01*
G01X76316Y47216D01*
G01X76271Y47442D01*
G01X76179Y47579D01*
G01X76045Y47625D01*
G01X75953Y47625D01*
G01X77162Y47625D02*
G01X76708Y47625D01*
G01X76662Y47216D01*
G01X76708Y47261D01*
G01X76845Y47304D01*
G01X76979Y47304D01*
G01X77116Y47261D01*
G01X77208Y47170D01*
G01X77254Y47033D01*
G01X77254Y46941D01*
G01X77208Y46807D01*
G01X77116Y46715D01*
G01X76979Y46669D01*
G01X76845Y46669D01*
G01X76708Y46715D01*
G01X76662Y46761D01*
G01X76616Y46852D01*
G54D28*
G01X81026Y9070D02*
G01X82123Y9070D01*
G01X81026Y9070D02*
G01X82123Y9801D01*
G01X81026Y9801D02*
G01X82123Y9801D01*
G01X81026Y10147D02*
G01X82123Y10147D01*
G01X81026Y10147D02*
G01X81026Y10617D01*
G01X81079Y10774D01*
G01X81130Y10825D01*
G01X81234Y10878D01*
G01X81341Y10878D01*
G01X81445Y10825D01*
G01X81495Y10774D01*
G01X81549Y10617D01*
G01X81549Y10147D01*
G01X81549Y10513D02*
G01X82123Y10878D01*
G01X81026Y11224D02*
G01X82123Y11224D01*
G01X81026Y11224D02*
G01X81026Y11902D01*
G01X81549Y11224D02*
G01X81549Y11643D01*
G01X81287Y12301D02*
G01X81234Y12301D01*
G01X81130Y12352D01*
G01X81079Y12405D01*
G01X81026Y12509D01*
G01X81026Y12717D01*
G01X81079Y12824D01*
G01X81130Y12875D01*
G01X81234Y12928D01*
G01X81341Y12928D01*
G01X81445Y12875D01*
G01X81600Y12771D01*
G01X82123Y12247D01*
G01X82123Y12979D01*
G01X81026Y13848D02*
G01X81757Y13324D01*
G01X81757Y14109D01*
G01X81026Y13848D02*
G01X82123Y13848D01*
G01X81026Y14455D02*
G01X82123Y14455D01*
G01X82123Y14455D02*
G01X82123Y15082D01*
G01X81026Y15740D02*
G01X81079Y15582D01*
G01X81234Y15478D01*
G01X81495Y15425D01*
G01X81653Y15425D01*
G01X81915Y15478D01*
G01X82072Y15582D01*
G01X82123Y15740D01*
G01X82123Y15844D01*
G01X82072Y16002D01*
G01X81915Y16106D01*
G01X81653Y16159D01*
G01X81495Y16159D01*
G01X81234Y16106D01*
G01X81079Y16002D01*
G01X81026Y15844D01*
G01X81026Y15740D01*
G01X81234Y16502D02*
G01X81183Y16609D01*
G01X81026Y16764D01*
G01X82123Y16764D01*
G54D29*
G01X11003Y6367D02*
G01X11054Y6263D01*
G01X11158Y6159D01*
G01X11262Y6106D01*
G01X11417Y6055D01*
G01X11676Y6055D01*
G01X11833Y6106D01*
G01X11938Y6159D01*
G01X12042Y6263D01*
G01X12092Y6367D01*
G01X12092Y6576D01*
G01X12042Y6677D01*
G01X11938Y6781D01*
G01X11833Y6835D01*
G01X11676Y6885D01*
G01X11417Y6885D01*
G01X11262Y6835D01*
G01X11158Y6781D01*
G01X11054Y6677D01*
G01X11003Y6576D01*
G01X11003Y6367D01*
G01X11003Y7228D02*
G01X12092Y7228D01*
G01X11003Y7228D02*
G01X12092Y7957D01*
G01X11003Y7957D02*
G01X12092Y7957D01*
G01X10795Y9235D02*
G01X12456Y8300D01*
G01X11003Y9890D02*
G01X11054Y9786D01*
G01X11158Y9682D01*
G01X11262Y9629D01*
G01X11417Y9578D01*
G01X11676Y9578D01*
G01X11833Y9629D01*
G01X11938Y9682D01*
G01X12042Y9786D01*
G01X12092Y9890D01*
G01X12092Y10096D01*
G01X12042Y10200D01*
G01X11938Y10304D01*
G01X11833Y10358D01*
G01X11676Y10408D01*
G01X11417Y10408D01*
G01X11262Y10358D01*
G01X11158Y10304D01*
G01X11054Y10200D01*
G01X11003Y10096D01*
G01X11003Y9890D01*
G01X11003Y10751D02*
G01X12092Y10751D01*
G01X11003Y10751D02*
G01X11003Y11427D01*
G01X11521Y10751D02*
G01X11521Y11168D01*
G01X11003Y11770D02*
G01X12092Y11770D01*
G01X11003Y11770D02*
G01X11003Y12446D01*
G01X11521Y11770D02*
G01X11521Y12186D01*
G54D28*
G01X9116Y12260D02*
G01X9189Y12115D01*
G01X9408Y11897D01*
G01X7879Y11897D01*
G01X9009Y7117D02*
G01X9083Y7117D01*
G01X9227Y7045D01*
G01X9301Y6972D01*
G01X9375Y6827D01*
G01X9375Y6535D01*
G01X9301Y6390D01*
G01X9227Y6316D01*
G01X9083Y6245D01*
G01X8938Y6245D01*
G01X8793Y6316D01*
G01X8575Y6464D01*
G01X7846Y7190D01*
G01X7846Y6172D01*
G54D29*
G01X10927Y23131D02*
G01X10822Y23078D01*
G01X10718Y22974D01*
G01X10668Y22872D01*
G01X10668Y22664D01*
G01X10718Y22560D01*
G01X10822Y22456D01*
G01X10927Y22402D01*
G01X11082Y22351D01*
G01X11341Y22351D01*
G01X11498Y22402D01*
G01X11602Y22456D01*
G01X11706Y22560D01*
G01X11757Y22664D01*
G01X11757Y22872D01*
G01X11706Y22974D01*
G01X11602Y23078D01*
G01X11498Y23131D01*
G01X11341Y23131D01*
G01X11341Y22872D02*
G01X11341Y23131D01*
G01X10668Y23474D02*
G01X11757Y23474D01*
G01X10668Y23474D02*
G01X11757Y24201D01*
G01X10668Y24201D02*
G01X11757Y24201D01*
G01X10668Y24543D02*
G01X11757Y24543D01*
G01X10668Y24543D02*
G01X10668Y24907D01*
G01X10718Y25064D01*
G01X10822Y25168D01*
G01X10927Y25219D01*
G01X11082Y25272D01*
G01X11341Y25272D01*
G01X11498Y25219D01*
G01X11602Y25168D01*
G01X11706Y25064D01*
G01X11757Y24907D01*
G01X11757Y24543D01*
G54D28*
G01X9116Y23944D02*
G01X9189Y23799D01*
G01X9408Y23581D01*
G01X7879Y23581D01*
G01X9010Y18801D02*
G01X9083Y18801D01*
G01X9228Y18730D01*
G01X9302Y18656D01*
G01X9375Y18511D01*
G01X9375Y18219D01*
G01X9302Y18074D01*
G01X9228Y18001D01*
G01X9083Y17930D01*
G01X8939Y17930D01*
G01X8794Y18001D01*
G01X8575Y18148D01*
G01X7846Y18874D01*
G01X7846Y17856D01*
G54D29*
G01X16383Y42672D02*
G01X16383Y41716D01*
G01X16383Y42672D02*
G01X16791Y42672D01*
G01X16929Y42626D01*
G01X16974Y42580D01*
G01X17020Y42489D01*
G01X17020Y42397D01*
G01X16974Y42308D01*
G01X16929Y42263D01*
G01X16791Y42217D01*
G01X16383Y42217D01*
G01X16700Y42217D02*
G01X17020Y41716D01*
G01X17365Y42443D02*
G01X17365Y42489D01*
G01X17409Y42580D01*
G01X17454Y42626D01*
G01X17546Y42672D01*
G01X17729Y42672D01*
G01X17818Y42626D01*
G01X17863Y42580D01*
G01X17909Y42489D01*
G01X17909Y42397D01*
G01X17863Y42308D01*
G01X17774Y42171D01*
G01X17320Y41716D01*
G01X17955Y41716D01*
G01X18709Y42672D02*
G01X18254Y42034D01*
G01X18938Y42034D01*
G01X18709Y42672D02*
G01X18709Y41716D01*
G01X19509Y42672D02*
G01X19375Y42626D01*
G01X19283Y42489D01*
G01X19237Y42263D01*
G01X19237Y42125D01*
G01X19283Y41899D01*
G01X19375Y41762D01*
G01X19509Y41716D01*
G01X19601Y41716D01*
G01X19738Y41762D01*
G01X19827Y41899D01*
G01X19872Y42125D01*
G01X19872Y42263D01*
G01X19827Y42489D01*
G01X19738Y42626D01*
G01X19601Y42672D01*
G01X19509Y42672D01*
G01X76852Y27807D02*
G01X76799Y27912D01*
G01X76695Y28016D01*
G01X76593Y28067D01*
G01X76385Y28067D01*
G01X76281Y28016D01*
G01X76177Y27912D01*
G01X76123Y27807D01*
G01X76073Y27652D01*
G01X76073Y27393D01*
G01X76123Y27236D01*
G01X76177Y27132D01*
G01X76281Y27028D01*
G01X76385Y26977D01*
G01X76593Y26977D01*
G01X76695Y27028D01*
G01X76799Y27132D01*
G01X76852Y27236D01*
G01X77817Y28067D02*
G01X77299Y28067D01*
G01X77246Y27599D01*
G01X77299Y27652D01*
G01X77454Y27703D01*
G01X77609Y27703D01*
G01X77767Y27652D01*
G01X77871Y27548D01*
G01X77922Y27393D01*
G01X77922Y27289D01*
G01X77871Y27132D01*
G01X77767Y27028D01*
G01X77609Y26977D01*
G01X77454Y26977D01*
G01X77299Y27028D01*
G01X77246Y27081D01*
G01X77195Y27185D01*
G54D28*
G01X80873Y23418D02*
G01X80873Y24892D01*
G01X81610Y24155D02*
G01X80136Y24155D01*
G54D29*
G01X48986Y46822D02*
G01X48882Y46926D01*
G01X48727Y46977D01*
G01X48519Y46977D01*
G01X48364Y46926D01*
G01X48260Y46822D01*
G01X48260Y46718D01*
G01X48310Y46614D01*
G01X48364Y46563D01*
G01X48468Y46509D01*
G01X48780Y46405D01*
G01X48882Y46355D01*
G01X48935Y46304D01*
G01X48986Y46200D01*
G01X48986Y46042D01*
G01X48882Y45938D01*
G01X48727Y45887D01*
G01X48519Y45887D01*
G01X48364Y45938D01*
G01X48260Y46042D01*
G01X49486Y46977D02*
G01X49486Y46095D01*
G01X49537Y45938D01*
G01X49641Y45887D01*
G01X49745Y45887D01*
G01X49329Y46614D02*
G01X49695Y46614D01*
G01X50088Y46304D02*
G01X50711Y46304D01*
G01X50711Y46405D01*
G01X50660Y46509D01*
G01X50609Y46563D01*
G01X50505Y46614D01*
G01X50347Y46614D01*
G01X50243Y46563D01*
G01X50139Y46459D01*
G01X50088Y46304D01*
G01X50088Y46200D01*
G01X50139Y46042D01*
G01X50243Y45938D01*
G01X50347Y45887D01*
G01X50505Y45887D01*
G01X50609Y45938D01*
G01X50711Y46042D01*
G01X51054Y46614D02*
G01X51054Y45524D01*
G01X51054Y46459D02*
G01X51158Y46563D01*
G01X51262Y46614D01*
G01X51419Y46614D01*
G01X51523Y46563D01*
G01X51625Y46459D01*
G01X51678Y46304D01*
G01X51678Y46200D01*
G01X51625Y46042D01*
G01X51523Y45938D01*
G01X51419Y45887D01*
G01X51262Y45887D01*
G01X51158Y45938D01*
G01X51054Y46042D01*
G01X52021Y46614D02*
G01X52021Y45524D01*
G01X52021Y46459D02*
G01X52125Y46563D01*
G01X52230Y46614D01*
G01X52384Y46614D01*
G01X52489Y46563D01*
G01X52593Y46459D01*
G01X52644Y46304D01*
G01X52644Y46200D01*
G01X52593Y46042D01*
G01X52489Y45938D01*
G01X52384Y45887D01*
G01X52230Y45887D01*
G01X52125Y45938D01*
G01X52021Y46042D01*
G01X52986Y46304D02*
G01X53611Y46304D01*
G01X53611Y46405D01*
G01X53558Y46509D01*
G01X53507Y46563D01*
G01X53403Y46614D01*
G01X53248Y46614D01*
G01X53144Y46563D01*
G01X53040Y46459D01*
G01X52986Y46304D01*
G01X52986Y46200D01*
G01X53040Y46042D01*
G01X53144Y45938D01*
G01X53248Y45887D01*
G01X53403Y45887D01*
G01X53507Y45938D01*
G01X53611Y46042D01*
G01X53954Y46614D02*
G01X53954Y45887D01*
G01X53954Y46304D02*
G01X54005Y46459D01*
G01X54109Y46563D01*
G01X54213Y46614D01*
G01X54368Y46614D01*
G01X54764Y46718D02*
G01X54764Y46771D01*
G01X54815Y46875D01*
G01X54869Y46926D01*
G01X54973Y46977D01*
G01X55181Y46977D01*
G01X55283Y46926D01*
G01X55336Y46875D01*
G01X55387Y46771D01*
G01X55387Y46667D01*
G01X55336Y46563D01*
G01X55232Y46405D01*
G01X54711Y45887D01*
G01X55440Y45887D01*
G54D28*
G01X54437Y31877D02*
G01X55407Y31877D01*
G01X54437Y31877D02*
G01X55407Y32245D01*
G01X54437Y32616D02*
G01X55407Y32245D01*
G01X54437Y32616D02*
G01X55407Y32616D01*
G01X54574Y33566D02*
G01X54483Y33474D01*
G01X54437Y33337D01*
G01X54437Y33152D01*
G01X54483Y33012D01*
G01X54574Y32920D01*
G01X54668Y32920D01*
G01X54759Y32966D01*
G01X54805Y33012D01*
G01X54851Y33106D01*
G01X54945Y33383D01*
G01X54991Y33474D01*
G01X55036Y33520D01*
G01X55130Y33566D01*
G01X55267Y33566D01*
G01X55359Y33474D01*
G01X55407Y33337D01*
G01X55407Y33152D01*
G01X55359Y33012D01*
G01X55267Y32920D01*
G01X54622Y33870D02*
G01X54574Y33964D01*
G01X54437Y34102D01*
G01X55407Y34102D01*
G01X56977Y31877D02*
G01X57947Y31877D01*
G01X56977Y31877D02*
G01X57947Y32245D01*
G01X56977Y32616D02*
G01X57947Y32245D01*
G01X56977Y32616D02*
G01X57947Y32616D01*
G01X57114Y33566D02*
G01X57023Y33474D01*
G01X56977Y33337D01*
G01X56977Y33152D01*
G01X57023Y33012D01*
G01X57114Y32920D01*
G01X57208Y32920D01*
G01X57299Y32966D01*
G01X57345Y33012D01*
G01X57391Y33106D01*
G01X57485Y33383D01*
G01X57531Y33474D01*
G01X57576Y33520D01*
G01X57670Y33566D01*
G01X57807Y33566D01*
G01X57899Y33474D01*
G01X57947Y33337D01*
G01X57947Y33152D01*
G01X57899Y33012D01*
G01X57807Y32920D01*
G01X57208Y33919D02*
G01X57162Y33919D01*
G01X57068Y33964D01*
G01X57023Y34010D01*
G01X56977Y34102D01*
G01X56977Y34287D01*
G01X57023Y34378D01*
G01X57068Y34427D01*
G01X57162Y34472D01*
G01X57254Y34472D01*
G01X57345Y34427D01*
G01X57485Y34333D01*
G01X57947Y33870D01*
G01X57947Y34518D01*
G01X59517Y31877D02*
G01X60487Y31877D01*
G01X59517Y31877D02*
G01X60487Y32245D01*
G01X59517Y32616D02*
G01X60487Y32245D01*
G01X59517Y32616D02*
G01X60487Y32616D01*
G01X59654Y33566D02*
G01X59563Y33474D01*
G01X59517Y33337D01*
G01X59517Y33152D01*
G01X59563Y33012D01*
G01X59654Y32920D01*
G01X59748Y32920D01*
G01X59839Y32966D01*
G01X59885Y33012D01*
G01X59931Y33106D01*
G01X60025Y33383D01*
G01X60071Y33474D01*
G01X60116Y33520D01*
G01X60210Y33566D01*
G01X60347Y33566D01*
G01X60439Y33474D01*
G01X60487Y33337D01*
G01X60487Y33152D01*
G01X60439Y33012D01*
G01X60347Y32920D01*
G01X59517Y33964D02*
G01X59517Y34472D01*
G01X59885Y34196D01*
G01X59885Y34333D01*
G01X59931Y34427D01*
G01X59979Y34472D01*
G01X60116Y34518D01*
G01X60210Y34518D01*
G01X60347Y34472D01*
G01X60439Y34378D01*
G01X60487Y34241D01*
G01X60487Y34102D01*
G01X60439Y33964D01*
G01X60393Y33919D01*
G01X60302Y33870D01*
G01X67274Y32524D02*
G01X67183Y32430D01*
G01X67137Y32293D01*
G01X67137Y32108D01*
G01X67183Y31968D01*
G01X67274Y31877D01*
G01X67368Y31877D01*
G01X67459Y31922D01*
G01X67505Y31968D01*
G01X67551Y32062D01*
G01X67645Y32339D01*
G01X67691Y32430D01*
G01X67736Y32476D01*
G01X67830Y32524D01*
G01X67967Y32524D01*
G01X68059Y32430D01*
G01X68107Y32293D01*
G01X68107Y32108D01*
G01X68059Y31968D01*
G01X67967Y31877D01*
G01X67137Y33152D02*
G01X68107Y33152D01*
G01X67137Y32829D02*
G01X67137Y33474D01*
G01X67137Y33779D02*
G01X68107Y33779D01*
G01X67137Y33779D02*
G01X67137Y34378D01*
G01X67599Y33779D02*
G01X67599Y34150D01*
G01X68107Y33779D02*
G01X68107Y34378D01*
G01X67137Y34683D02*
G01X68107Y34683D01*
G01X67137Y34683D02*
G01X67137Y35100D01*
G01X67183Y35239D01*
G01X67228Y35285D01*
G01X67322Y35331D01*
G01X67459Y35331D01*
G01X67551Y35285D01*
G01X67599Y35239D01*
G01X67645Y35100D01*
G01X67645Y34683D01*
G01X69677Y31877D02*
G01X70647Y31877D01*
G01X69677Y31877D02*
G01X69677Y32199D01*
G01X69723Y32339D01*
G01X69814Y32430D01*
G01X69908Y32476D01*
G01X70045Y32524D01*
G01X70276Y32524D01*
G01X70416Y32476D01*
G01X70507Y32430D01*
G01X70599Y32339D01*
G01X70647Y32199D01*
G01X70647Y31877D01*
G01X69677Y32829D02*
G01X70647Y32829D01*
G01X69677Y33134D02*
G01X70647Y33134D01*
G01X69677Y33134D02*
G01X69677Y33548D01*
G01X69723Y33688D01*
G01X69768Y33733D01*
G01X69862Y33779D01*
G01X69954Y33779D01*
G01X70045Y33733D01*
G01X70091Y33688D01*
G01X70139Y33548D01*
G01X70139Y33134D01*
G01X70139Y33456D02*
G01X70647Y33779D01*
G01X69908Y40444D02*
G01X69814Y40398D01*
G01X69723Y40304D01*
G01X69677Y40213D01*
G01X69677Y40027D01*
G01X69723Y39936D01*
G01X69814Y39842D01*
G01X69908Y39796D01*
G01X70045Y39751D01*
G01X70276Y39751D01*
G01X70416Y39796D01*
G01X70507Y39842D01*
G01X70599Y39936D01*
G01X70647Y40027D01*
G01X70647Y40213D01*
G01X70599Y40304D01*
G01X70507Y40398D01*
G01X70416Y40444D01*
G01X70276Y40444D01*
G01X70276Y40213D02*
G01X70276Y40444D01*
G01X69677Y40749D02*
G01X70647Y40749D01*
G01X69677Y40749D02*
G01X70647Y41394D01*
G01X69677Y41394D02*
G01X70647Y41394D01*
G01X69677Y41699D02*
G01X70647Y41699D01*
G01X69677Y41699D02*
G01X69677Y42024D01*
G01X69723Y42161D01*
G01X69814Y42252D01*
G01X69908Y42301D01*
G01X70045Y42346D01*
G01X70276Y42346D01*
G01X70416Y42301D01*
G01X70507Y42252D01*
G01X70599Y42161D01*
G01X70647Y42024D01*
G01X70647Y41699D01*
G01X67137Y39751D02*
G01X68107Y40119D01*
G01X67137Y40490D02*
G01X68107Y40119D01*
G01X67137Y40794D02*
G01X68107Y40794D01*
G01X67137Y40794D02*
G01X67137Y41117D01*
G01X67183Y41257D01*
G01X67274Y41348D01*
G01X67368Y41394D01*
G01X67505Y41440D01*
G01X67736Y41440D01*
G01X67876Y41394D01*
G01X67967Y41348D01*
G01X68059Y41257D01*
G01X68107Y41117D01*
G01X68107Y40794D01*
G01X67137Y41744D02*
G01X68107Y41744D01*
G01X67137Y41744D02*
G01X67137Y42070D01*
G01X67183Y42207D01*
G01X67274Y42301D01*
G01X67368Y42346D01*
G01X67505Y42392D01*
G01X67736Y42392D01*
G01X67876Y42346D01*
G01X67967Y42301D01*
G01X68059Y42207D01*
G01X68107Y42070D01*
G01X68107Y41744D01*
G01X64782Y39751D02*
G01X64734Y39842D01*
G01X64597Y39982D01*
G01X65567Y39982D01*
G01X64597Y40286D02*
G01X65567Y40286D01*
G01X64597Y40286D02*
G01X64597Y40703D01*
G01X64643Y40840D01*
G01X64688Y40886D01*
G01X64782Y40932D01*
G01X64874Y40932D01*
G01X64965Y40886D01*
G01X65011Y40840D01*
G01X65059Y40703D01*
G01X65059Y40286D02*
G01X65059Y40703D01*
G01X65105Y40840D01*
G01X65151Y40886D01*
G01X65242Y40932D01*
G01X65382Y40932D01*
G01X65473Y40886D01*
G01X65519Y40840D01*
G01X65567Y40703D01*
G01X65567Y40286D01*
G01X62242Y39751D02*
G01X62194Y39842D01*
G01X62057Y39982D01*
G01X63027Y39982D01*
G01X62057Y40655D02*
G01X63027Y40286D01*
G01X62057Y40655D02*
G01X63027Y41026D01*
G01X62702Y40424D02*
G01X62702Y40886D01*
G01X59748Y39796D02*
G01X59702Y39796D01*
G01X59608Y39842D01*
G01X59563Y39890D01*
G01X59517Y39982D01*
G01X59517Y40167D01*
G01X59563Y40259D01*
G01X59608Y40304D01*
G01X59702Y40350D01*
G01X59794Y40350D01*
G01X59885Y40304D01*
G01X60025Y40213D01*
G01X60487Y39751D01*
G01X60487Y40398D01*
G01X59517Y41071D02*
G01X60487Y40703D01*
G01X59517Y41071D02*
G01X60487Y41440D01*
G01X60162Y40840D02*
G01X60162Y41302D01*
G01X57208Y39796D02*
G01X57162Y39796D01*
G01X57068Y39842D01*
G01X57023Y39890D01*
G01X56977Y39982D01*
G01X56977Y40167D01*
G01X57023Y40259D01*
G01X57068Y40304D01*
G01X57162Y40350D01*
G01X57254Y40350D01*
G01X57345Y40304D01*
G01X57485Y40213D01*
G01X57947Y39751D01*
G01X57947Y40398D01*
G01X56977Y40703D02*
G01X57947Y40703D01*
G01X56977Y40703D02*
G01X56977Y41117D01*
G01X57023Y41257D01*
G01X57068Y41302D01*
G01X57162Y41348D01*
G01X57254Y41348D01*
G01X57345Y41302D01*
G01X57391Y41257D01*
G01X57439Y41117D01*
G01X57439Y40703D02*
G01X57439Y41117D01*
G01X57485Y41257D01*
G01X57531Y41302D01*
G01X57622Y41348D01*
G01X57762Y41348D01*
G01X57853Y41302D01*
G01X57899Y41257D01*
G01X57947Y41117D01*
G01X57947Y40703D01*
G01X54668Y40444D02*
G01X54574Y40398D01*
G01X54483Y40304D01*
G01X54437Y40213D01*
G01X54437Y40027D01*
G01X54483Y39936D01*
G01X54574Y39842D01*
G01X54668Y39796D01*
G01X54805Y39751D01*
G01X55036Y39751D01*
G01X55176Y39796D01*
G01X55267Y39842D01*
G01X55359Y39936D01*
G01X55407Y40027D01*
G01X55407Y40213D01*
G01X55359Y40304D01*
G01X55267Y40398D01*
G01X55176Y40444D01*
G01X55036Y40444D01*
G01X55036Y40213D02*
G01X55036Y40444D01*
G01X54437Y40749D02*
G01X55407Y40749D01*
G01X54437Y40749D02*
G01X55407Y41394D01*
G01X54437Y41394D02*
G01X55407Y41394D01*
G01X54437Y41699D02*
G01X55407Y41699D01*
G01X54437Y41699D02*
G01X54437Y42024D01*
G01X54483Y42161D01*
G01X54574Y42252D01*
G01X54668Y42301D01*
G01X54805Y42346D01*
G01X55036Y42346D01*
G01X55176Y42301D01*
G01X55267Y42252D01*
G01X55359Y42161D01*
G01X55407Y42024D01*
G01X55407Y41699D01*
G01X51897Y38735D02*
G01X52867Y39103D01*
G01X51897Y39474D02*
G01X52867Y39103D01*
G01X51897Y39778D02*
G01X52867Y39778D01*
G01X51897Y39778D02*
G01X52867Y40147D01*
G01X51897Y40518D02*
G01X52867Y40147D01*
G01X51897Y40518D02*
G01X52867Y40518D01*
G01X51897Y41099D02*
G01X51943Y41008D01*
G01X52034Y40914D01*
G01X52128Y40868D01*
G01X52265Y40822D01*
G01X52496Y40822D01*
G01X52636Y40868D01*
G01X52727Y40914D01*
G01X52819Y41008D01*
G01X52867Y41099D01*
G01X52867Y41285D01*
G01X52819Y41376D01*
G01X52727Y41468D01*
G01X52636Y41516D01*
G01X52496Y41562D01*
G01X52265Y41562D01*
G01X52128Y41516D01*
G01X52034Y41468D01*
G01X51943Y41376D01*
G01X51897Y41285D01*
G01X51897Y41099D01*
G01X51897Y42189D02*
G01X52867Y42189D01*
G01X51897Y41866D02*
G01X51897Y42511D01*
G01X51897Y31877D02*
G01X52867Y31877D01*
G01X51897Y31877D02*
G01X51897Y32476D01*
G01X52359Y31877D02*
G01X52359Y32245D01*
G01X52867Y31877D02*
G01X52867Y32476D01*
G01X51897Y32781D02*
G01X52867Y32781D01*
G01X51897Y32781D02*
G01X52867Y33428D01*
G01X51897Y33428D02*
G01X52867Y33428D01*
G01X62057Y31877D02*
G01X63027Y31877D01*
G01X62057Y31877D02*
G01X62057Y32293D01*
G01X62103Y32430D01*
G01X62148Y32476D01*
G01X62242Y32524D01*
G01X62334Y32524D01*
G01X62425Y32476D01*
G01X62471Y32430D01*
G01X62519Y32293D01*
G01X62519Y31877D01*
G01X62519Y32199D02*
G01X63027Y32524D01*
G01X62194Y33474D02*
G01X62103Y33383D01*
G01X62057Y33243D01*
G01X62057Y33058D01*
G01X62103Y32920D01*
G01X62194Y32829D01*
G01X62288Y32829D01*
G01X62379Y32875D01*
G01X62425Y32920D01*
G01X62471Y33012D01*
G01X62565Y33289D01*
G01X62611Y33383D01*
G01X62656Y33428D01*
G01X62750Y33474D01*
G01X62887Y33474D01*
G01X62979Y33383D01*
G01X63027Y33243D01*
G01X63027Y33058D01*
G01X62979Y32920D01*
G01X62887Y32829D01*
G01X62057Y34102D02*
G01X63027Y34102D01*
G01X62057Y33779D02*
G01X62057Y34427D01*
G01X64734Y32524D02*
G01X64643Y32430D01*
G01X64597Y32293D01*
G01X64597Y32108D01*
G01X64643Y31968D01*
G01X64734Y31877D01*
G01X64828Y31877D01*
G01X64919Y31922D01*
G01X64965Y31968D01*
G01X65011Y32062D01*
G01X65105Y32339D01*
G01X65151Y32430D01*
G01X65196Y32476D01*
G01X65290Y32524D01*
G01X65427Y32524D01*
G01X65519Y32430D01*
G01X65567Y32293D01*
G01X65567Y32108D01*
G01X65519Y31968D01*
G01X65427Y31877D01*
G01X64597Y32829D02*
G01X65567Y32829D01*
G01X65567Y32829D02*
G01X65567Y33383D01*
G01X64597Y33688D02*
G01X65567Y33688D01*
G01X64597Y33688D02*
G01X64597Y34102D01*
G01X64643Y34241D01*
G01X64688Y34287D01*
G01X64782Y34333D01*
G01X64919Y34333D01*
G01X65011Y34287D01*
G01X65059Y34241D01*
G01X65105Y34102D01*
G01X65105Y33688D01*
G54D29*
G01X49113Y25105D02*
G01X49009Y25209D01*
G01X48854Y25260D01*
G01X48646Y25260D01*
G01X48491Y25209D01*
G01X48387Y25105D01*
G01X48387Y25001D01*
G01X48437Y24897D01*
G01X48491Y24846D01*
G01X48595Y24792D01*
G01X48907Y24688D01*
G01X49009Y24638D01*
G01X49062Y24587D01*
G01X49113Y24483D01*
G01X49113Y24325D01*
G01X49009Y24221D01*
G01X48854Y24170D01*
G01X48646Y24170D01*
G01X48491Y24221D01*
G01X48387Y24325D01*
G01X49613Y25260D02*
G01X49613Y24378D01*
G01X49664Y24221D01*
G01X49768Y24170D01*
G01X49872Y24170D01*
G01X49456Y24897D02*
G01X49822Y24897D01*
G01X50215Y24587D02*
G01X50838Y24587D01*
G01X50838Y24688D01*
G01X50787Y24792D01*
G01X50736Y24846D01*
G01X50632Y24897D01*
G01X50474Y24897D01*
G01X50370Y24846D01*
G01X50266Y24742D01*
G01X50215Y24587D01*
G01X50215Y24483D01*
G01X50266Y24325D01*
G01X50370Y24221D01*
G01X50474Y24170D01*
G01X50632Y24170D01*
G01X50736Y24221D01*
G01X50838Y24325D01*
G01X51181Y24897D02*
G01X51181Y23807D01*
G01X51181Y24742D02*
G01X51285Y24846D01*
G01X51389Y24897D01*
G01X51546Y24897D01*
G01X51650Y24846D01*
G01X51752Y24742D01*
G01X51805Y24587D01*
G01X51805Y24483D01*
G01X51752Y24325D01*
G01X51650Y24221D01*
G01X51546Y24170D01*
G01X51389Y24170D01*
G01X51285Y24221D01*
G01X51181Y24325D01*
G01X52148Y24897D02*
G01X52148Y23807D01*
G01X52148Y24742D02*
G01X52252Y24846D01*
G01X52357Y24897D01*
G01X52511Y24897D01*
G01X52616Y24846D01*
G01X52720Y24742D01*
G01X52771Y24587D01*
G01X52771Y24483D01*
G01X52720Y24325D01*
G01X52616Y24221D01*
G01X52511Y24170D01*
G01X52357Y24170D01*
G01X52252Y24221D01*
G01X52148Y24325D01*
G01X53113Y24587D02*
G01X53738Y24587D01*
G01X53738Y24688D01*
G01X53685Y24792D01*
G01X53634Y24846D01*
G01X53530Y24897D01*
G01X53375Y24897D01*
G01X53271Y24846D01*
G01X53167Y24742D01*
G01X53113Y24587D01*
G01X53113Y24483D01*
G01X53167Y24325D01*
G01X53271Y24221D01*
G01X53375Y24170D01*
G01X53530Y24170D01*
G01X53634Y24221D01*
G01X53738Y24325D01*
G01X54081Y24897D02*
G01X54081Y24170D01*
G01X54081Y24587D02*
G01X54132Y24742D01*
G01X54236Y24846D01*
G01X54340Y24897D01*
G01X54495Y24897D01*
G01X55359Y25260D02*
G01X54838Y24533D01*
G01X55618Y24533D01*
G01X55359Y25260D02*
G01X55359Y24170D01*
G54D28*
G01X54564Y10541D02*
G01X55534Y10541D01*
G01X54564Y10541D02*
G01X55534Y10909D01*
G01X54564Y11280D02*
G01X55534Y10909D01*
G01X54564Y11280D02*
G01X55534Y11280D01*
G01X54701Y12230D02*
G01X54610Y12138D01*
G01X54564Y12001D01*
G01X54564Y11816D01*
G01X54610Y11676D01*
G01X54701Y11584D01*
G01X54795Y11584D01*
G01X54886Y11630D01*
G01X54932Y11676D01*
G01X54978Y11770D01*
G01X55072Y12047D01*
G01X55118Y12138D01*
G01X55163Y12184D01*
G01X55257Y12230D01*
G01X55394Y12230D01*
G01X55486Y12138D01*
G01X55534Y12001D01*
G01X55534Y11816D01*
G01X55486Y11676D01*
G01X55394Y11584D01*
G01X54749Y12534D02*
G01X54701Y12628D01*
G01X54564Y12766D01*
G01X55534Y12766D01*
G01X57104Y10541D02*
G01X58074Y10541D01*
G01X57104Y10541D02*
G01X58074Y10909D01*
G01X57104Y11280D02*
G01X58074Y10909D01*
G01X57104Y11280D02*
G01X58074Y11280D01*
G01X57241Y12230D02*
G01X57150Y12138D01*
G01X57104Y12001D01*
G01X57104Y11816D01*
G01X57150Y11676D01*
G01X57241Y11584D01*
G01X57335Y11584D01*
G01X57426Y11630D01*
G01X57472Y11676D01*
G01X57518Y11770D01*
G01X57612Y12047D01*
G01X57658Y12138D01*
G01X57703Y12184D01*
G01X57797Y12230D01*
G01X57934Y12230D01*
G01X58026Y12138D01*
G01X58074Y12001D01*
G01X58074Y11816D01*
G01X58026Y11676D01*
G01X57934Y11584D01*
G01X57335Y12583D02*
G01X57289Y12583D01*
G01X57195Y12628D01*
G01X57150Y12674D01*
G01X57104Y12766D01*
G01X57104Y12951D01*
G01X57150Y13042D01*
G01X57195Y13091D01*
G01X57289Y13136D01*
G01X57381Y13136D01*
G01X57472Y13091D01*
G01X57612Y12997D01*
G01X58074Y12534D01*
G01X58074Y13182D01*
G01X59644Y10541D02*
G01X60614Y10541D01*
G01X59644Y10541D02*
G01X60614Y10909D01*
G01X59644Y11280D02*
G01X60614Y10909D01*
G01X59644Y11280D02*
G01X60614Y11280D01*
G01X59781Y12230D02*
G01X59690Y12138D01*
G01X59644Y12001D01*
G01X59644Y11816D01*
G01X59690Y11676D01*
G01X59781Y11584D01*
G01X59875Y11584D01*
G01X59966Y11630D01*
G01X60012Y11676D01*
G01X60058Y11770D01*
G01X60152Y12047D01*
G01X60198Y12138D01*
G01X60243Y12184D01*
G01X60337Y12230D01*
G01X60474Y12230D01*
G01X60566Y12138D01*
G01X60614Y12001D01*
G01X60614Y11816D01*
G01X60566Y11676D01*
G01X60474Y11584D01*
G01X59644Y12628D02*
G01X59644Y13136D01*
G01X60012Y12860D01*
G01X60012Y12997D01*
G01X60058Y13091D01*
G01X60106Y13136D01*
G01X60243Y13182D01*
G01X60337Y13182D01*
G01X60474Y13136D01*
G01X60566Y13042D01*
G01X60614Y12905D01*
G01X60614Y12766D01*
G01X60566Y12628D01*
G01X60520Y12583D01*
G01X60429Y12534D01*
G01X67401Y11188D02*
G01X67310Y11094D01*
G01X67264Y10957D01*
G01X67264Y10772D01*
G01X67310Y10632D01*
G01X67401Y10541D01*
G01X67495Y10541D01*
G01X67586Y10586D01*
G01X67632Y10632D01*
G01X67678Y10726D01*
G01X67772Y11003D01*
G01X67818Y11094D01*
G01X67863Y11140D01*
G01X67957Y11188D01*
G01X68094Y11188D01*
G01X68186Y11094D01*
G01X68234Y10957D01*
G01X68234Y10772D01*
G01X68186Y10632D01*
G01X68094Y10541D01*
G01X67264Y11816D02*
G01X68234Y11816D01*
G01X67264Y11493D02*
G01X67264Y12138D01*
G01X67264Y12443D02*
G01X68234Y12443D01*
G01X67264Y12443D02*
G01X67264Y13042D01*
G01X67726Y12443D02*
G01X67726Y12814D01*
G01X68234Y12443D02*
G01X68234Y13042D01*
G01X67264Y13347D02*
G01X68234Y13347D01*
G01X67264Y13347D02*
G01X67264Y13764D01*
G01X67310Y13903D01*
G01X67355Y13949D01*
G01X67449Y13995D01*
G01X67586Y13995D01*
G01X67678Y13949D01*
G01X67726Y13903D01*
G01X67772Y13764D01*
G01X67772Y13347D01*
G01X69804Y10541D02*
G01X70774Y10541D01*
G01X69804Y10541D02*
G01X69804Y10863D01*
G01X69850Y11003D01*
G01X69941Y11094D01*
G01X70035Y11140D01*
G01X70172Y11188D01*
G01X70403Y11188D01*
G01X70543Y11140D01*
G01X70634Y11094D01*
G01X70726Y11003D01*
G01X70774Y10863D01*
G01X70774Y10541D01*
G01X69804Y11493D02*
G01X70774Y11493D01*
G01X69804Y11798D02*
G01X70774Y11798D01*
G01X69804Y11798D02*
G01X69804Y12212D01*
G01X69850Y12352D01*
G01X69895Y12397D01*
G01X69989Y12443D01*
G01X70081Y12443D01*
G01X70172Y12397D01*
G01X70218Y12352D01*
G01X70266Y12212D01*
G01X70266Y11798D01*
G01X70266Y12120D02*
G01X70774Y12443D01*
G01X70035Y19108D02*
G01X69941Y19062D01*
G01X69850Y18968D01*
G01X69804Y18877D01*
G01X69804Y18691D01*
G01X69850Y18600D01*
G01X69941Y18506D01*
G01X70035Y18460D01*
G01X70172Y18415D01*
G01X70403Y18415D01*
G01X70543Y18460D01*
G01X70634Y18506D01*
G01X70726Y18600D01*
G01X70774Y18691D01*
G01X70774Y18877D01*
G01X70726Y18968D01*
G01X70634Y19062D01*
G01X70543Y19108D01*
G01X70403Y19108D01*
G01X70403Y18877D02*
G01X70403Y19108D01*
G01X69804Y19413D02*
G01X70774Y19413D01*
G01X69804Y19413D02*
G01X70774Y20058D01*
G01X69804Y20058D02*
G01X70774Y20058D01*
G01X69804Y20363D02*
G01X70774Y20363D01*
G01X69804Y20363D02*
G01X69804Y20688D01*
G01X69850Y20825D01*
G01X69941Y20916D01*
G01X70035Y20965D01*
G01X70172Y21010D01*
G01X70403Y21010D01*
G01X70543Y20965D01*
G01X70634Y20916D01*
G01X70726Y20825D01*
G01X70774Y20688D01*
G01X70774Y20363D01*
G01X67264Y18415D02*
G01X68234Y18783D01*
G01X67264Y19154D02*
G01X68234Y18783D01*
G01X67264Y19458D02*
G01X68234Y19458D01*
G01X67264Y19458D02*
G01X67264Y19781D01*
G01X67310Y19921D01*
G01X67401Y20012D01*
G01X67495Y20058D01*
G01X67632Y20104D01*
G01X67863Y20104D01*
G01X68003Y20058D01*
G01X68094Y20012D01*
G01X68186Y19921D01*
G01X68234Y19781D01*
G01X68234Y19458D01*
G01X67264Y20408D02*
G01X68234Y20408D01*
G01X67264Y20408D02*
G01X67264Y20734D01*
G01X67310Y20871D01*
G01X67401Y20965D01*
G01X67495Y21010D01*
G01X67632Y21056D01*
G01X67863Y21056D01*
G01X68003Y21010D01*
G01X68094Y20965D01*
G01X68186Y20871D01*
G01X68234Y20734D01*
G01X68234Y20408D01*
G01X64909Y18415D02*
G01X64861Y18506D01*
G01X64724Y18646D01*
G01X65694Y18646D01*
G01X64724Y18950D02*
G01X65694Y18950D01*
G01X64724Y18950D02*
G01X64724Y19367D01*
G01X64770Y19504D01*
G01X64815Y19550D01*
G01X64909Y19596D01*
G01X65001Y19596D01*
G01X65092Y19550D01*
G01X65138Y19504D01*
G01X65186Y19367D01*
G01X65186Y18950D02*
G01X65186Y19367D01*
G01X65232Y19504D01*
G01X65278Y19550D01*
G01X65369Y19596D01*
G01X65509Y19596D01*
G01X65600Y19550D01*
G01X65646Y19504D01*
G01X65694Y19367D01*
G01X65694Y18950D01*
G01X62369Y18415D02*
G01X62321Y18506D01*
G01X62184Y18646D01*
G01X63154Y18646D01*
G01X62184Y19319D02*
G01X63154Y18950D01*
G01X62184Y19319D02*
G01X63154Y19690D01*
G01X62829Y19088D02*
G01X62829Y19550D01*
G01X59875Y18460D02*
G01X59829Y18460D01*
G01X59735Y18506D01*
G01X59690Y18554D01*
G01X59644Y18646D01*
G01X59644Y18831D01*
G01X59690Y18923D01*
G01X59735Y18968D01*
G01X59829Y19014D01*
G01X59921Y19014D01*
G01X60012Y18968D01*
G01X60152Y18877D01*
G01X60614Y18415D01*
G01X60614Y19062D01*
G01X59644Y19735D02*
G01X60614Y19367D01*
G01X59644Y19735D02*
G01X60614Y20104D01*
G01X60289Y19504D02*
G01X60289Y19966D01*
G01X57335Y18460D02*
G01X57289Y18460D01*
G01X57195Y18506D01*
G01X57150Y18554D01*
G01X57104Y18646D01*
G01X57104Y18831D01*
G01X57150Y18923D01*
G01X57195Y18968D01*
G01X57289Y19014D01*
G01X57381Y19014D01*
G01X57472Y18968D01*
G01X57612Y18877D01*
G01X58074Y18415D01*
G01X58074Y19062D01*
G01X57104Y19367D02*
G01X58074Y19367D01*
G01X57104Y19367D02*
G01X57104Y19781D01*
G01X57150Y19921D01*
G01X57195Y19966D01*
G01X57289Y20012D01*
G01X57381Y20012D01*
G01X57472Y19966D01*
G01X57518Y19921D01*
G01X57566Y19781D01*
G01X57566Y19367D02*
G01X57566Y19781D01*
G01X57612Y19921D01*
G01X57658Y19966D01*
G01X57749Y20012D01*
G01X57889Y20012D01*
G01X57980Y19966D01*
G01X58026Y19921D01*
G01X58074Y19781D01*
G01X58074Y19367D01*
G01X54795Y19108D02*
G01X54701Y19062D01*
G01X54610Y18968D01*
G01X54564Y18877D01*
G01X54564Y18691D01*
G01X54610Y18600D01*
G01X54701Y18506D01*
G01X54795Y18460D01*
G01X54932Y18415D01*
G01X55163Y18415D01*
G01X55303Y18460D01*
G01X55394Y18506D01*
G01X55486Y18600D01*
G01X55534Y18691D01*
G01X55534Y18877D01*
G01X55486Y18968D01*
G01X55394Y19062D01*
G01X55303Y19108D01*
G01X55163Y19108D01*
G01X55163Y18877D02*
G01X55163Y19108D01*
G01X54564Y19413D02*
G01X55534Y19413D01*
G01X54564Y19413D02*
G01X55534Y20058D01*
G01X54564Y20058D02*
G01X55534Y20058D01*
G01X54564Y20363D02*
G01X55534Y20363D01*
G01X54564Y20363D02*
G01X54564Y20688D01*
G01X54610Y20825D01*
G01X54701Y20916D01*
G01X54795Y20965D01*
G01X54932Y21010D01*
G01X55163Y21010D01*
G01X55303Y20965D01*
G01X55394Y20916D01*
G01X55486Y20825D01*
G01X55534Y20688D01*
G01X55534Y20363D01*
G01X52024Y17399D02*
G01X52994Y17767D01*
G01X52024Y18138D02*
G01X52994Y17767D01*
G01X52024Y18442D02*
G01X52994Y18442D01*
G01X52024Y18442D02*
G01X52994Y18811D01*
G01X52024Y19182D02*
G01X52994Y18811D01*
G01X52024Y19182D02*
G01X52994Y19182D01*
G01X52024Y19763D02*
G01X52070Y19672D01*
G01X52161Y19578D01*
G01X52255Y19532D01*
G01X52392Y19486D01*
G01X52623Y19486D01*
G01X52763Y19532D01*
G01X52854Y19578D01*
G01X52946Y19672D01*
G01X52994Y19763D01*
G01X52994Y19949D01*
G01X52946Y20040D01*
G01X52854Y20132D01*
G01X52763Y20180D01*
G01X52623Y20226D01*
G01X52392Y20226D01*
G01X52255Y20180D01*
G01X52161Y20132D01*
G01X52070Y20040D01*
G01X52024Y19949D01*
G01X52024Y19763D01*
G01X52024Y20853D02*
G01X52994Y20853D01*
G01X52024Y20530D02*
G01X52024Y21175D01*
G01X52024Y10541D02*
G01X52994Y10541D01*
G01X52024Y10541D02*
G01X52024Y11140D01*
G01X52486Y10541D02*
G01X52486Y10909D01*
G01X52994Y10541D02*
G01X52994Y11140D01*
G01X52024Y11445D02*
G01X52994Y11445D01*
G01X52024Y11445D02*
G01X52994Y12092D01*
G01X52024Y12092D02*
G01X52994Y12092D01*
G01X62184Y10541D02*
G01X63154Y10541D01*
G01X62184Y10541D02*
G01X62184Y10957D01*
G01X62230Y11094D01*
G01X62275Y11140D01*
G01X62369Y11188D01*
G01X62461Y11188D01*
G01X62552Y11140D01*
G01X62598Y11094D01*
G01X62646Y10957D01*
G01X62646Y10541D01*
G01X62646Y10863D02*
G01X63154Y11188D01*
G01X62321Y12138D02*
G01X62230Y12047D01*
G01X62184Y11907D01*
G01X62184Y11722D01*
G01X62230Y11584D01*
G01X62321Y11493D01*
G01X62415Y11493D01*
G01X62506Y11539D01*
G01X62552Y11584D01*
G01X62598Y11676D01*
G01X62692Y11953D01*
G01X62738Y12047D01*
G01X62783Y12092D01*
G01X62877Y12138D01*
G01X63014Y12138D01*
G01X63106Y12047D01*
G01X63154Y11907D01*
G01X63154Y11722D01*
G01X63106Y11584D01*
G01X63014Y11493D01*
G01X62184Y12766D02*
G01X63154Y12766D01*
G01X62184Y12443D02*
G01X62184Y13091D01*
G01X64861Y11188D02*
G01X64770Y11094D01*
G01X64724Y10957D01*
G01X64724Y10772D01*
G01X64770Y10632D01*
G01X64861Y10541D01*
G01X64955Y10541D01*
G01X65046Y10586D01*
G01X65092Y10632D01*
G01X65138Y10726D01*
G01X65232Y11003D01*
G01X65278Y11094D01*
G01X65323Y11140D01*
G01X65417Y11188D01*
G01X65554Y11188D01*
G01X65646Y11094D01*
G01X65694Y10957D01*
G01X65694Y10772D01*
G01X65646Y10632D01*
G01X65554Y10541D01*
G01X64724Y11493D02*
G01X65694Y11493D01*
G01X65694Y11493D02*
G01X65694Y12047D01*
G01X64724Y12352D02*
G01X65694Y12352D01*
G01X64724Y12352D02*
G01X64724Y12766D01*
G01X64770Y12905D01*
G01X64815Y12951D01*
G01X64909Y12997D01*
G01X65046Y12997D01*
G01X65138Y12951D01*
G01X65186Y12905D01*
G01X65232Y12766D01*
G01X65232Y12352D01*
G54D29*
G01X45176Y27264D02*
G01X45072Y27368D01*
G01X44917Y27419D01*
G01X44709Y27419D01*
G01X44554Y27368D01*
G01X44450Y27264D01*
G01X44450Y27160D01*
G01X44500Y27056D01*
G01X44554Y27005D01*
G01X44658Y26951D01*
G01X44970Y26847D01*
G01X45072Y26797D01*
G01X45125Y26746D01*
G01X45176Y26642D01*
G01X45176Y26484D01*
G01X45072Y26380D01*
G01X44917Y26329D01*
G01X44709Y26329D01*
G01X44554Y26380D01*
G01X44450Y26484D01*
G01X45676Y27419D02*
G01X45676Y26537D01*
G01X45727Y26380D01*
G01X45831Y26329D01*
G01X45935Y26329D01*
G01X45519Y27056D02*
G01X45885Y27056D01*
G01X46278Y26746D02*
G01X46901Y26746D01*
G01X46901Y26847D01*
G01X46850Y26951D01*
G01X46799Y27005D01*
G01X46695Y27056D01*
G01X46537Y27056D01*
G01X46433Y27005D01*
G01X46329Y26901D01*
G01X46278Y26746D01*
G01X46278Y26642D01*
G01X46329Y26484D01*
G01X46433Y26380D01*
G01X46537Y26329D01*
G01X46695Y26329D01*
G01X46799Y26380D01*
G01X46901Y26484D01*
G01X47244Y27056D02*
G01X47244Y25966D01*
G01X47244Y26901D02*
G01X47348Y27005D01*
G01X47452Y27056D01*
G01X47609Y27056D01*
G01X47713Y27005D01*
G01X47815Y26901D01*
G01X47868Y26746D01*
G01X47868Y26642D01*
G01X47815Y26484D01*
G01X47713Y26380D01*
G01X47609Y26329D01*
G01X47452Y26329D01*
G01X47348Y26380D01*
G01X47244Y26484D01*
G01X48211Y27056D02*
G01X48211Y25966D01*
G01X48211Y26901D02*
G01X48315Y27005D01*
G01X48420Y27056D01*
G01X48574Y27056D01*
G01X48679Y27005D01*
G01X48783Y26901D01*
G01X48834Y26746D01*
G01X48834Y26642D01*
G01X48783Y26484D01*
G01X48679Y26380D01*
G01X48574Y26329D01*
G01X48420Y26329D01*
G01X48315Y26380D01*
G01X48211Y26484D01*
G01X49176Y26746D02*
G01X49801Y26746D01*
G01X49801Y26847D01*
G01X49748Y26951D01*
G01X49697Y27005D01*
G01X49593Y27056D01*
G01X49438Y27056D01*
G01X49334Y27005D01*
G01X49230Y26901D01*
G01X49176Y26746D01*
G01X49176Y26642D01*
G01X49230Y26484D01*
G01X49334Y26380D01*
G01X49438Y26329D01*
G01X49593Y26329D01*
G01X49697Y26380D01*
G01X49801Y26484D01*
G01X50144Y27056D02*
G01X50144Y26329D01*
G01X50144Y26746D02*
G01X50195Y26901D01*
G01X50299Y27005D01*
G01X50403Y27056D01*
G01X50558Y27056D01*
G01X51005Y27419D02*
G01X51577Y27419D01*
G01X51267Y27005D01*
G01X51422Y27005D01*
G01X51526Y26951D01*
G01X51577Y26901D01*
G01X51630Y26746D01*
G01X51630Y26642D01*
G01X51577Y26484D01*
G01X51473Y26380D01*
G01X51318Y26329D01*
G01X51163Y26329D01*
G01X51005Y26380D01*
G01X50954Y26433D01*
G01X50901Y26537D01*
G54D28*
G01X31577Y10541D02*
G01X32547Y10541D01*
G01X31577Y10541D02*
G01X32547Y10909D01*
G01X31577Y11280D02*
G01X32547Y10909D01*
G01X31577Y11280D02*
G01X32547Y11280D01*
G01X31714Y12230D02*
G01X31623Y12138D01*
G01X31577Y12001D01*
G01X31577Y11816D01*
G01X31623Y11676D01*
G01X31714Y11584D01*
G01X31808Y11584D01*
G01X31899Y11630D01*
G01X31945Y11676D01*
G01X31991Y11770D01*
G01X32085Y12047D01*
G01X32131Y12138D01*
G01X32176Y12184D01*
G01X32270Y12230D01*
G01X32407Y12230D01*
G01X32499Y12138D01*
G01X32547Y12001D01*
G01X32547Y11816D01*
G01X32499Y11676D01*
G01X32407Y11584D01*
G01X31762Y12534D02*
G01X31714Y12628D01*
G01X31577Y12766D01*
G01X32547Y12766D01*
G01X34117Y10541D02*
G01X35087Y10541D01*
G01X34117Y10541D02*
G01X35087Y10909D01*
G01X34117Y11280D02*
G01X35087Y10909D01*
G01X34117Y11280D02*
G01X35087Y11280D01*
G01X34254Y12230D02*
G01X34163Y12138D01*
G01X34117Y12001D01*
G01X34117Y11816D01*
G01X34163Y11676D01*
G01X34254Y11584D01*
G01X34348Y11584D01*
G01X34439Y11630D01*
G01X34485Y11676D01*
G01X34531Y11770D01*
G01X34625Y12047D01*
G01X34671Y12138D01*
G01X34716Y12184D01*
G01X34810Y12230D01*
G01X34947Y12230D01*
G01X35039Y12138D01*
G01X35087Y12001D01*
G01X35087Y11816D01*
G01X35039Y11676D01*
G01X34947Y11584D01*
G01X34348Y12583D02*
G01X34302Y12583D01*
G01X34208Y12628D01*
G01X34163Y12674D01*
G01X34117Y12766D01*
G01X34117Y12951D01*
G01X34163Y13042D01*
G01X34208Y13091D01*
G01X34302Y13136D01*
G01X34394Y13136D01*
G01X34485Y13091D01*
G01X34625Y12997D01*
G01X35087Y12534D01*
G01X35087Y13182D01*
G01X36657Y10541D02*
G01X37627Y10541D01*
G01X36657Y10541D02*
G01X37627Y10909D01*
G01X36657Y11280D02*
G01X37627Y10909D01*
G01X36657Y11280D02*
G01X37627Y11280D01*
G01X36794Y12230D02*
G01X36703Y12138D01*
G01X36657Y12001D01*
G01X36657Y11816D01*
G01X36703Y11676D01*
G01X36794Y11584D01*
G01X36888Y11584D01*
G01X36979Y11630D01*
G01X37025Y11676D01*
G01X37071Y11770D01*
G01X37165Y12047D01*
G01X37211Y12138D01*
G01X37256Y12184D01*
G01X37350Y12230D01*
G01X37487Y12230D01*
G01X37579Y12138D01*
G01X37627Y12001D01*
G01X37627Y11816D01*
G01X37579Y11676D01*
G01X37487Y11584D01*
G01X36657Y12628D02*
G01X36657Y13136D01*
G01X37025Y12860D01*
G01X37025Y12997D01*
G01X37071Y13091D01*
G01X37119Y13136D01*
G01X37256Y13182D01*
G01X37350Y13182D01*
G01X37487Y13136D01*
G01X37579Y13042D01*
G01X37627Y12905D01*
G01X37627Y12766D01*
G01X37579Y12628D01*
G01X37533Y12583D01*
G01X37442Y12534D01*
G01X44414Y11188D02*
G01X44323Y11094D01*
G01X44277Y10957D01*
G01X44277Y10772D01*
G01X44323Y10632D01*
G01X44414Y10541D01*
G01X44508Y10541D01*
G01X44599Y10586D01*
G01X44645Y10632D01*
G01X44691Y10726D01*
G01X44785Y11003D01*
G01X44831Y11094D01*
G01X44876Y11140D01*
G01X44970Y11188D01*
G01X45107Y11188D01*
G01X45199Y11094D01*
G01X45247Y10957D01*
G01X45247Y10772D01*
G01X45199Y10632D01*
G01X45107Y10541D01*
G01X44277Y11816D02*
G01X45247Y11816D01*
G01X44277Y11493D02*
G01X44277Y12138D01*
G01X44277Y12443D02*
G01X45247Y12443D01*
G01X44277Y12443D02*
G01X44277Y13042D01*
G01X44739Y12443D02*
G01X44739Y12814D01*
G01X45247Y12443D02*
G01X45247Y13042D01*
G01X44277Y13347D02*
G01X45247Y13347D01*
G01X44277Y13347D02*
G01X44277Y13764D01*
G01X44323Y13903D01*
G01X44368Y13949D01*
G01X44462Y13995D01*
G01X44599Y13995D01*
G01X44691Y13949D01*
G01X44739Y13903D01*
G01X44785Y13764D01*
G01X44785Y13347D01*
G01X46817Y10541D02*
G01X47787Y10541D01*
G01X46817Y10541D02*
G01X46817Y10863D01*
G01X46863Y11003D01*
G01X46954Y11094D01*
G01X47048Y11140D01*
G01X47185Y11188D01*
G01X47416Y11188D01*
G01X47556Y11140D01*
G01X47647Y11094D01*
G01X47739Y11003D01*
G01X47787Y10863D01*
G01X47787Y10541D01*
G01X46817Y11493D02*
G01X47787Y11493D01*
G01X46817Y11798D02*
G01X47787Y11798D01*
G01X46817Y11798D02*
G01X46817Y12212D01*
G01X46863Y12352D01*
G01X46908Y12397D01*
G01X47002Y12443D01*
G01X47094Y12443D01*
G01X47185Y12397D01*
G01X47231Y12352D01*
G01X47279Y12212D01*
G01X47279Y11798D01*
G01X47279Y12120D02*
G01X47787Y12443D01*
G01X47048Y19108D02*
G01X46954Y19062D01*
G01X46863Y18968D01*
G01X46817Y18877D01*
G01X46817Y18691D01*
G01X46863Y18600D01*
G01X46954Y18506D01*
G01X47048Y18460D01*
G01X47185Y18415D01*
G01X47416Y18415D01*
G01X47556Y18460D01*
G01X47647Y18506D01*
G01X47739Y18600D01*
G01X47787Y18691D01*
G01X47787Y18877D01*
G01X47739Y18968D01*
G01X47647Y19062D01*
G01X47556Y19108D01*
G01X47416Y19108D01*
G01X47416Y18877D02*
G01X47416Y19108D01*
G01X46817Y19413D02*
G01X47787Y19413D01*
G01X46817Y19413D02*
G01X47787Y20058D01*
G01X46817Y20058D02*
G01X47787Y20058D01*
G01X46817Y20363D02*
G01X47787Y20363D01*
G01X46817Y20363D02*
G01X46817Y20688D01*
G01X46863Y20825D01*
G01X46954Y20916D01*
G01X47048Y20965D01*
G01X47185Y21010D01*
G01X47416Y21010D01*
G01X47556Y20965D01*
G01X47647Y20916D01*
G01X47739Y20825D01*
G01X47787Y20688D01*
G01X47787Y20363D01*
G01X44277Y18415D02*
G01X45247Y18783D01*
G01X44277Y19154D02*
G01X45247Y18783D01*
G01X44277Y19458D02*
G01X45247Y19458D01*
G01X44277Y19458D02*
G01X44277Y19781D01*
G01X44323Y19921D01*
G01X44414Y20012D01*
G01X44508Y20058D01*
G01X44645Y20104D01*
G01X44876Y20104D01*
G01X45016Y20058D01*
G01X45107Y20012D01*
G01X45199Y19921D01*
G01X45247Y19781D01*
G01X45247Y19458D01*
G01X44277Y20408D02*
G01X45247Y20408D01*
G01X44277Y20408D02*
G01X44277Y20734D01*
G01X44323Y20871D01*
G01X44414Y20965D01*
G01X44508Y21010D01*
G01X44645Y21056D01*
G01X44876Y21056D01*
G01X45016Y21010D01*
G01X45107Y20965D01*
G01X45199Y20871D01*
G01X45247Y20734D01*
G01X45247Y20408D01*
G01X41922Y18415D02*
G01X41874Y18506D01*
G01X41737Y18646D01*
G01X42707Y18646D01*
G01X41737Y18950D02*
G01X42707Y18950D01*
G01X41737Y18950D02*
G01X41737Y19367D01*
G01X41783Y19504D01*
G01X41828Y19550D01*
G01X41922Y19596D01*
G01X42014Y19596D01*
G01X42105Y19550D01*
G01X42151Y19504D01*
G01X42199Y19367D01*
G01X42199Y18950D02*
G01X42199Y19367D01*
G01X42245Y19504D01*
G01X42291Y19550D01*
G01X42382Y19596D01*
G01X42522Y19596D01*
G01X42613Y19550D01*
G01X42659Y19504D01*
G01X42707Y19367D01*
G01X42707Y18950D01*
G01X39382Y18415D02*
G01X39334Y18506D01*
G01X39197Y18646D01*
G01X40167Y18646D01*
G01X39197Y19319D02*
G01X40167Y18950D01*
G01X39197Y19319D02*
G01X40167Y19690D01*
G01X39842Y19088D02*
G01X39842Y19550D01*
G01X36888Y18460D02*
G01X36842Y18460D01*
G01X36748Y18506D01*
G01X36703Y18554D01*
G01X36657Y18646D01*
G01X36657Y18831D01*
G01X36703Y18923D01*
G01X36748Y18968D01*
G01X36842Y19014D01*
G01X36934Y19014D01*
G01X37025Y18968D01*
G01X37165Y18877D01*
G01X37627Y18415D01*
G01X37627Y19062D01*
G01X36657Y19735D02*
G01X37627Y19367D01*
G01X36657Y19735D02*
G01X37627Y20104D01*
G01X37302Y19504D02*
G01X37302Y19966D01*
G01X34348Y18460D02*
G01X34302Y18460D01*
G01X34208Y18506D01*
G01X34163Y18554D01*
G01X34117Y18646D01*
G01X34117Y18831D01*
G01X34163Y18923D01*
G01X34208Y18968D01*
G01X34302Y19014D01*
G01X34394Y19014D01*
G01X34485Y18968D01*
G01X34625Y18877D01*
G01X35087Y18415D01*
G01X35087Y19062D01*
G01X34117Y19367D02*
G01X35087Y19367D01*
G01X34117Y19367D02*
G01X34117Y19781D01*
G01X34163Y19921D01*
G01X34208Y19966D01*
G01X34302Y20012D01*
G01X34394Y20012D01*
G01X34485Y19966D01*
G01X34531Y19921D01*
G01X34579Y19781D01*
G01X34579Y19367D02*
G01X34579Y19781D01*
G01X34625Y19921D01*
G01X34671Y19966D01*
G01X34762Y20012D01*
G01X34902Y20012D01*
G01X34993Y19966D01*
G01X35039Y19921D01*
G01X35087Y19781D01*
G01X35087Y19367D01*
G01X31808Y19108D02*
G01X31714Y19062D01*
G01X31623Y18968D01*
G01X31577Y18877D01*
G01X31577Y18691D01*
G01X31623Y18600D01*
G01X31714Y18506D01*
G01X31808Y18460D01*
G01X31945Y18415D01*
G01X32176Y18415D01*
G01X32316Y18460D01*
G01X32407Y18506D01*
G01X32499Y18600D01*
G01X32547Y18691D01*
G01X32547Y18877D01*
G01X32499Y18968D01*
G01X32407Y19062D01*
G01X32316Y19108D01*
G01X32176Y19108D01*
G01X32176Y18877D02*
G01X32176Y19108D01*
G01X31577Y19413D02*
G01X32547Y19413D01*
G01X31577Y19413D02*
G01X32547Y20058D01*
G01X31577Y20058D02*
G01X32547Y20058D01*
G01X31577Y20363D02*
G01X32547Y20363D01*
G01X31577Y20363D02*
G01X31577Y20688D01*
G01X31623Y20825D01*
G01X31714Y20916D01*
G01X31808Y20965D01*
G01X31945Y21010D01*
G01X32176Y21010D01*
G01X32316Y20965D01*
G01X32407Y20916D01*
G01X32499Y20825D01*
G01X32547Y20688D01*
G01X32547Y20363D01*
G01X29037Y17399D02*
G01X30007Y17767D01*
G01X29037Y18138D02*
G01X30007Y17767D01*
G01X29037Y18442D02*
G01X30007Y18442D01*
G01X29037Y18442D02*
G01X30007Y18811D01*
G01X29037Y19182D02*
G01X30007Y18811D01*
G01X29037Y19182D02*
G01X30007Y19182D01*
G01X29037Y19763D02*
G01X29083Y19672D01*
G01X29174Y19578D01*
G01X29268Y19532D01*
G01X29405Y19486D01*
G01X29636Y19486D01*
G01X29776Y19532D01*
G01X29867Y19578D01*
G01X29959Y19672D01*
G01X30007Y19763D01*
G01X30007Y19949D01*
G01X29959Y20040D01*
G01X29867Y20132D01*
G01X29776Y20180D01*
G01X29636Y20226D01*
G01X29405Y20226D01*
G01X29268Y20180D01*
G01X29174Y20132D01*
G01X29083Y20040D01*
G01X29037Y19949D01*
G01X29037Y19763D01*
G01X29037Y20853D02*
G01X30007Y20853D01*
G01X29037Y20530D02*
G01X29037Y21175D01*
G01X29037Y10541D02*
G01X30007Y10541D01*
G01X29037Y10541D02*
G01X29037Y11140D01*
G01X29499Y10541D02*
G01X29499Y10909D01*
G01X30007Y10541D02*
G01X30007Y11140D01*
G01X29037Y11445D02*
G01X30007Y11445D01*
G01X29037Y11445D02*
G01X30007Y12092D01*
G01X29037Y12092D02*
G01X30007Y12092D01*
G01X39197Y10541D02*
G01X40167Y10541D01*
G01X39197Y10541D02*
G01X39197Y10957D01*
G01X39243Y11094D01*
G01X39288Y11140D01*
G01X39382Y11188D01*
G01X39474Y11188D01*
G01X39565Y11140D01*
G01X39611Y11094D01*
G01X39659Y10957D01*
G01X39659Y10541D01*
G01X39659Y10863D02*
G01X40167Y11188D01*
G01X39334Y12138D02*
G01X39243Y12047D01*
G01X39197Y11907D01*
G01X39197Y11722D01*
G01X39243Y11584D01*
G01X39334Y11493D01*
G01X39428Y11493D01*
G01X39519Y11539D01*
G01X39565Y11584D01*
G01X39611Y11676D01*
G01X39705Y11953D01*
G01X39751Y12047D01*
G01X39796Y12092D01*
G01X39890Y12138D01*
G01X40027Y12138D01*
G01X40119Y12047D01*
G01X40167Y11907D01*
G01X40167Y11722D01*
G01X40119Y11584D01*
G01X40027Y11493D01*
G01X39197Y12766D02*
G01X40167Y12766D01*
G01X39197Y12443D02*
G01X39197Y13091D01*
G01X41874Y11188D02*
G01X41783Y11094D01*
G01X41737Y10957D01*
G01X41737Y10772D01*
G01X41783Y10632D01*
G01X41874Y10541D01*
G01X41968Y10541D01*
G01X42059Y10586D01*
G01X42105Y10632D01*
G01X42151Y10726D01*
G01X42245Y11003D01*
G01X42291Y11094D01*
G01X42336Y11140D01*
G01X42430Y11188D01*
G01X42567Y11188D01*
G01X42659Y11094D01*
G01X42707Y10957D01*
G01X42707Y10772D01*
G01X42659Y10632D01*
G01X42567Y10541D01*
G01X41737Y11493D02*
G01X42707Y11493D01*
G01X42707Y11493D02*
G01X42707Y12047D01*
G01X41737Y12352D02*
G01X42707Y12352D01*
G01X41737Y12352D02*
G01X41737Y12766D01*
G01X41783Y12905D01*
G01X41828Y12951D01*
G01X41922Y12997D01*
G01X42059Y12997D01*
G01X42151Y12951D01*
G01X42199Y12905D01*
G01X42245Y12766D01*
G01X42245Y12352D01*
G54D29*
G01X45176Y48867D02*
G01X45072Y48971D01*
G01X44917Y49022D01*
G01X44709Y49022D01*
G01X44554Y48971D01*
G01X44450Y48867D01*
G01X44450Y48762D01*
G01X44500Y48658D01*
G01X44554Y48607D01*
G01X44658Y48554D01*
G01X44970Y48450D01*
G01X45072Y48399D01*
G01X45125Y48348D01*
G01X45176Y48244D01*
G01X45176Y48087D01*
G01X45072Y47983D01*
G01X44917Y47932D01*
G01X44709Y47932D01*
G01X44554Y47983D01*
G01X44450Y48087D01*
G01X45676Y49022D02*
G01X45676Y48140D01*
G01X45727Y47983D01*
G01X45831Y47932D01*
G01X45935Y47932D01*
G01X45519Y48658D02*
G01X45885Y48658D01*
G01X46278Y48348D02*
G01X46901Y48348D01*
G01X46901Y48450D01*
G01X46850Y48554D01*
G01X46799Y48607D01*
G01X46695Y48658D01*
G01X46537Y48658D01*
G01X46433Y48607D01*
G01X46329Y48503D01*
G01X46278Y48348D01*
G01X46278Y48244D01*
G01X46329Y48087D01*
G01X46433Y47983D01*
G01X46537Y47932D01*
G01X46695Y47932D01*
G01X46799Y47983D01*
G01X46901Y48087D01*
G01X47244Y48658D02*
G01X47244Y47569D01*
G01X47244Y48503D02*
G01X47348Y48607D01*
G01X47452Y48658D01*
G01X47609Y48658D01*
G01X47713Y48607D01*
G01X47815Y48503D01*
G01X47868Y48348D01*
G01X47868Y48244D01*
G01X47815Y48087D01*
G01X47713Y47983D01*
G01X47609Y47932D01*
G01X47452Y47932D01*
G01X47348Y47983D01*
G01X47244Y48087D01*
G01X48211Y48658D02*
G01X48211Y47569D01*
G01X48211Y48503D02*
G01X48315Y48607D01*
G01X48420Y48658D01*
G01X48574Y48658D01*
G01X48679Y48607D01*
G01X48783Y48503D01*
G01X48834Y48348D01*
G01X48834Y48244D01*
G01X48783Y48087D01*
G01X48679Y47983D01*
G01X48574Y47932D01*
G01X48420Y47932D01*
G01X48315Y47983D01*
G01X48211Y48087D01*
G01X49176Y48348D02*
G01X49801Y48348D01*
G01X49801Y48450D01*
G01X49748Y48554D01*
G01X49697Y48607D01*
G01X49593Y48658D01*
G01X49438Y48658D01*
G01X49334Y48607D01*
G01X49230Y48503D01*
G01X49176Y48348D01*
G01X49176Y48244D01*
G01X49230Y48087D01*
G01X49334Y47983D01*
G01X49438Y47932D01*
G01X49593Y47932D01*
G01X49697Y47983D01*
G01X49801Y48087D01*
G01X50144Y48658D02*
G01X50144Y47932D01*
G01X50144Y48348D02*
G01X50195Y48503D01*
G01X50299Y48607D01*
G01X50403Y48658D01*
G01X50558Y48658D01*
G01X50901Y48816D02*
G01X51005Y48867D01*
G01X51163Y49022D01*
G01X51163Y47932D01*
G54D28*
G01X31577Y31877D02*
G01X32547Y31877D01*
G01X31577Y31877D02*
G01X32547Y32245D01*
G01X31577Y32616D02*
G01X32547Y32245D01*
G01X31577Y32616D02*
G01X32547Y32616D01*
G01X31714Y33566D02*
G01X31623Y33474D01*
G01X31577Y33337D01*
G01X31577Y33152D01*
G01X31623Y33012D01*
G01X31714Y32920D01*
G01X31808Y32920D01*
G01X31899Y32966D01*
G01X31945Y33012D01*
G01X31991Y33106D01*
G01X32085Y33383D01*
G01X32131Y33474D01*
G01X32176Y33520D01*
G01X32270Y33566D01*
G01X32407Y33566D01*
G01X32499Y33474D01*
G01X32547Y33337D01*
G01X32547Y33152D01*
G01X32499Y33012D01*
G01X32407Y32920D01*
G01X31762Y33870D02*
G01X31714Y33964D01*
G01X31577Y34102D01*
G01X32547Y34102D01*
G01X34117Y31877D02*
G01X35087Y31877D01*
G01X34117Y31877D02*
G01X35087Y32245D01*
G01X34117Y32616D02*
G01X35087Y32245D01*
G01X34117Y32616D02*
G01X35087Y32616D01*
G01X34254Y33566D02*
G01X34163Y33474D01*
G01X34117Y33337D01*
G01X34117Y33152D01*
G01X34163Y33012D01*
G01X34254Y32920D01*
G01X34348Y32920D01*
G01X34439Y32966D01*
G01X34485Y33012D01*
G01X34531Y33106D01*
G01X34625Y33383D01*
G01X34671Y33474D01*
G01X34716Y33520D01*
G01X34810Y33566D01*
G01X34947Y33566D01*
G01X35039Y33474D01*
G01X35087Y33337D01*
G01X35087Y33152D01*
G01X35039Y33012D01*
G01X34947Y32920D01*
G01X34348Y33919D02*
G01X34302Y33919D01*
G01X34208Y33964D01*
G01X34163Y34010D01*
G01X34117Y34102D01*
G01X34117Y34287D01*
G01X34163Y34378D01*
G01X34208Y34427D01*
G01X34302Y34472D01*
G01X34394Y34472D01*
G01X34485Y34427D01*
G01X34625Y34333D01*
G01X35087Y33870D01*
G01X35087Y34518D01*
G01X36657Y31877D02*
G01X37627Y31877D01*
G01X36657Y31877D02*
G01X37627Y32245D01*
G01X36657Y32616D02*
G01X37627Y32245D01*
G01X36657Y32616D02*
G01X37627Y32616D01*
G01X36794Y33566D02*
G01X36703Y33474D01*
G01X36657Y33337D01*
G01X36657Y33152D01*
G01X36703Y33012D01*
G01X36794Y32920D01*
G01X36888Y32920D01*
G01X36979Y32966D01*
G01X37025Y33012D01*
G01X37071Y33106D01*
G01X37165Y33383D01*
G01X37211Y33474D01*
G01X37256Y33520D01*
G01X37350Y33566D01*
G01X37487Y33566D01*
G01X37579Y33474D01*
G01X37627Y33337D01*
G01X37627Y33152D01*
G01X37579Y33012D01*
G01X37487Y32920D01*
G01X36657Y33964D02*
G01X36657Y34472D01*
G01X37025Y34196D01*
G01X37025Y34333D01*
G01X37071Y34427D01*
G01X37119Y34472D01*
G01X37256Y34518D01*
G01X37350Y34518D01*
G01X37487Y34472D01*
G01X37579Y34378D01*
G01X37627Y34241D01*
G01X37627Y34102D01*
G01X37579Y33964D01*
G01X37533Y33919D01*
G01X37442Y33870D01*
G01X44414Y32524D02*
G01X44323Y32430D01*
G01X44277Y32293D01*
G01X44277Y32108D01*
G01X44323Y31968D01*
G01X44414Y31877D01*
G01X44508Y31877D01*
G01X44599Y31922D01*
G01X44645Y31968D01*
G01X44691Y32062D01*
G01X44785Y32339D01*
G01X44831Y32430D01*
G01X44876Y32476D01*
G01X44970Y32524D01*
G01X45107Y32524D01*
G01X45199Y32430D01*
G01X45247Y32293D01*
G01X45247Y32108D01*
G01X45199Y31968D01*
G01X45107Y31877D01*
G01X44277Y33152D02*
G01X45247Y33152D01*
G01X44277Y32829D02*
G01X44277Y33474D01*
G01X44277Y33779D02*
G01X45247Y33779D01*
G01X44277Y33779D02*
G01X44277Y34378D01*
G01X44739Y33779D02*
G01X44739Y34150D01*
G01X45247Y33779D02*
G01X45247Y34378D01*
G01X44277Y34683D02*
G01X45247Y34683D01*
G01X44277Y34683D02*
G01X44277Y35100D01*
G01X44323Y35239D01*
G01X44368Y35285D01*
G01X44462Y35331D01*
G01X44599Y35331D01*
G01X44691Y35285D01*
G01X44739Y35239D01*
G01X44785Y35100D01*
G01X44785Y34683D01*
G01X46817Y31877D02*
G01X47787Y31877D01*
G01X46817Y31877D02*
G01X46817Y32199D01*
G01X46863Y32339D01*
G01X46954Y32430D01*
G01X47048Y32476D01*
G01X47185Y32524D01*
G01X47416Y32524D01*
G01X47556Y32476D01*
G01X47647Y32430D01*
G01X47739Y32339D01*
G01X47787Y32199D01*
G01X47787Y31877D01*
G01X46817Y32829D02*
G01X47787Y32829D01*
G01X46817Y33134D02*
G01X47787Y33134D01*
G01X46817Y33134D02*
G01X46817Y33548D01*
G01X46863Y33688D01*
G01X46908Y33733D01*
G01X47002Y33779D01*
G01X47094Y33779D01*
G01X47185Y33733D01*
G01X47231Y33688D01*
G01X47279Y33548D01*
G01X47279Y33134D01*
G01X47279Y33456D02*
G01X47787Y33779D01*
G01X47048Y40444D02*
G01X46954Y40398D01*
G01X46863Y40304D01*
G01X46817Y40213D01*
G01X46817Y40027D01*
G01X46863Y39936D01*
G01X46954Y39842D01*
G01X47048Y39796D01*
G01X47185Y39751D01*
G01X47416Y39751D01*
G01X47556Y39796D01*
G01X47647Y39842D01*
G01X47739Y39936D01*
G01X47787Y40027D01*
G01X47787Y40213D01*
G01X47739Y40304D01*
G01X47647Y40398D01*
G01X47556Y40444D01*
G01X47416Y40444D01*
G01X47416Y40213D02*
G01X47416Y40444D01*
G01X46817Y40749D02*
G01X47787Y40749D01*
G01X46817Y40749D02*
G01X47787Y41394D01*
G01X46817Y41394D02*
G01X47787Y41394D01*
G01X46817Y41699D02*
G01X47787Y41699D01*
G01X46817Y41699D02*
G01X46817Y42024D01*
G01X46863Y42161D01*
G01X46954Y42252D01*
G01X47048Y42301D01*
G01X47185Y42346D01*
G01X47416Y42346D01*
G01X47556Y42301D01*
G01X47647Y42252D01*
G01X47739Y42161D01*
G01X47787Y42024D01*
G01X47787Y41699D01*
G01X44277Y39751D02*
G01X45247Y40119D01*
G01X44277Y40490D02*
G01X45247Y40119D01*
G01X44277Y40794D02*
G01X45247Y40794D01*
G01X44277Y40794D02*
G01X44277Y41117D01*
G01X44323Y41257D01*
G01X44414Y41348D01*
G01X44508Y41394D01*
G01X44645Y41440D01*
G01X44876Y41440D01*
G01X45016Y41394D01*
G01X45107Y41348D01*
G01X45199Y41257D01*
G01X45247Y41117D01*
G01X45247Y40794D01*
G01X44277Y41744D02*
G01X45247Y41744D01*
G01X44277Y41744D02*
G01X44277Y42070D01*
G01X44323Y42207D01*
G01X44414Y42301D01*
G01X44508Y42346D01*
G01X44645Y42392D01*
G01X44876Y42392D01*
G01X45016Y42346D01*
G01X45107Y42301D01*
G01X45199Y42207D01*
G01X45247Y42070D01*
G01X45247Y41744D01*
G01X41922Y39751D02*
G01X41874Y39842D01*
G01X41737Y39982D01*
G01X42707Y39982D01*
G01X41737Y40286D02*
G01X42707Y40286D01*
G01X41737Y40286D02*
G01X41737Y40703D01*
G01X41783Y40840D01*
G01X41828Y40886D01*
G01X41922Y40932D01*
G01X42014Y40932D01*
G01X42105Y40886D01*
G01X42151Y40840D01*
G01X42199Y40703D01*
G01X42199Y40286D02*
G01X42199Y40703D01*
G01X42245Y40840D01*
G01X42291Y40886D01*
G01X42382Y40932D01*
G01X42522Y40932D01*
G01X42613Y40886D01*
G01X42659Y40840D01*
G01X42707Y40703D01*
G01X42707Y40286D01*
G01X39382Y39751D02*
G01X39334Y39842D01*
G01X39197Y39982D01*
G01X40167Y39982D01*
G01X39197Y40655D02*
G01X40167Y40286D01*
G01X39197Y40655D02*
G01X40167Y41026D01*
G01X39842Y40424D02*
G01X39842Y40886D01*
G01X36888Y39796D02*
G01X36842Y39796D01*
G01X36748Y39842D01*
G01X36703Y39890D01*
G01X36657Y39982D01*
G01X36657Y40167D01*
G01X36703Y40259D01*
G01X36748Y40304D01*
G01X36842Y40350D01*
G01X36934Y40350D01*
G01X37025Y40304D01*
G01X37165Y40213D01*
G01X37627Y39751D01*
G01X37627Y40398D01*
G01X36657Y41071D02*
G01X37627Y40703D01*
G01X36657Y41071D02*
G01X37627Y41440D01*
G01X37302Y40840D02*
G01X37302Y41302D01*
G01X34348Y39796D02*
G01X34302Y39796D01*
G01X34208Y39842D01*
G01X34163Y39890D01*
G01X34117Y39982D01*
G01X34117Y40167D01*
G01X34163Y40259D01*
G01X34208Y40304D01*
G01X34302Y40350D01*
G01X34394Y40350D01*
G01X34485Y40304D01*
G01X34625Y40213D01*
G01X35087Y39751D01*
G01X35087Y40398D01*
G01X34117Y40703D02*
G01X35087Y40703D01*
G01X34117Y40703D02*
G01X34117Y41117D01*
G01X34163Y41257D01*
G01X34208Y41302D01*
G01X34302Y41348D01*
G01X34394Y41348D01*
G01X34485Y41302D01*
G01X34531Y41257D01*
G01X34579Y41117D01*
G01X34579Y40703D02*
G01X34579Y41117D01*
G01X34625Y41257D01*
G01X34671Y41302D01*
G01X34762Y41348D01*
G01X34902Y41348D01*
G01X34993Y41302D01*
G01X35039Y41257D01*
G01X35087Y41117D01*
G01X35087Y40703D01*
G01X31808Y40444D02*
G01X31714Y40398D01*
G01X31623Y40304D01*
G01X31577Y40213D01*
G01X31577Y40027D01*
G01X31623Y39936D01*
G01X31714Y39842D01*
G01X31808Y39796D01*
G01X31945Y39751D01*
G01X32176Y39751D01*
G01X32316Y39796D01*
G01X32407Y39842D01*
G01X32499Y39936D01*
G01X32547Y40027D01*
G01X32547Y40213D01*
G01X32499Y40304D01*
G01X32407Y40398D01*
G01X32316Y40444D01*
G01X32176Y40444D01*
G01X32176Y40213D02*
G01X32176Y40444D01*
G01X31577Y40749D02*
G01X32547Y40749D01*
G01X31577Y40749D02*
G01X32547Y41394D01*
G01X31577Y41394D02*
G01X32547Y41394D01*
G01X31577Y41699D02*
G01X32547Y41699D01*
G01X31577Y41699D02*
G01X31577Y42024D01*
G01X31623Y42161D01*
G01X31714Y42252D01*
G01X31808Y42301D01*
G01X31945Y42346D01*
G01X32176Y42346D01*
G01X32316Y42301D01*
G01X32407Y42252D01*
G01X32499Y42161D01*
G01X32547Y42024D01*
G01X32547Y41699D01*
G01X29037Y38735D02*
G01X30007Y39103D01*
G01X29037Y39474D02*
G01X30007Y39103D01*
G01X29037Y39778D02*
G01X30007Y39778D01*
G01X29037Y39778D02*
G01X30007Y40147D01*
G01X29037Y40518D02*
G01X30007Y40147D01*
G01X29037Y40518D02*
G01X30007Y40518D01*
G01X29037Y41099D02*
G01X29083Y41008D01*
G01X29174Y40914D01*
G01X29268Y40868D01*
G01X29405Y40822D01*
G01X29636Y40822D01*
G01X29776Y40868D01*
G01X29867Y40914D01*
G01X29959Y41008D01*
G01X30007Y41099D01*
G01X30007Y41285D01*
G01X29959Y41376D01*
G01X29867Y41468D01*
G01X29776Y41516D01*
G01X29636Y41562D01*
G01X29405Y41562D01*
G01X29268Y41516D01*
G01X29174Y41468D01*
G01X29083Y41376D01*
G01X29037Y41285D01*
G01X29037Y41099D01*
G01X29037Y42189D02*
G01X30007Y42189D01*
G01X29037Y41866D02*
G01X29037Y42511D01*
G01X29037Y31877D02*
G01X30007Y31877D01*
G01X29037Y31877D02*
G01X29037Y32476D01*
G01X29499Y31877D02*
G01X29499Y32245D01*
G01X30007Y31877D02*
G01X30007Y32476D01*
G01X29037Y32781D02*
G01X30007Y32781D01*
G01X29037Y32781D02*
G01X30007Y33428D01*
G01X29037Y33428D02*
G01X30007Y33428D01*
G01X39197Y31877D02*
G01X40167Y31877D01*
G01X39197Y31877D02*
G01X39197Y32293D01*
G01X39243Y32430D01*
G01X39288Y32476D01*
G01X39382Y32524D01*
G01X39474Y32524D01*
G01X39565Y32476D01*
G01X39611Y32430D01*
G01X39659Y32293D01*
G01X39659Y31877D01*
G01X39659Y32199D02*
G01X40167Y32524D01*
G01X39334Y33474D02*
G01X39243Y33383D01*
G01X39197Y33243D01*
G01X39197Y33058D01*
G01X39243Y32920D01*
G01X39334Y32829D01*
G01X39428Y32829D01*
G01X39519Y32875D01*
G01X39565Y32920D01*
G01X39611Y33012D01*
G01X39705Y33289D01*
G01X39751Y33383D01*
G01X39796Y33428D01*
G01X39890Y33474D01*
G01X40027Y33474D01*
G01X40119Y33383D01*
G01X40167Y33243D01*
G01X40167Y33058D01*
G01X40119Y32920D01*
G01X40027Y32829D01*
G01X39197Y34102D02*
G01X40167Y34102D01*
G01X39197Y33779D02*
G01X39197Y34427D01*
G01X41874Y32524D02*
G01X41783Y32430D01*
G01X41737Y32293D01*
G01X41737Y32108D01*
G01X41783Y31968D01*
G01X41874Y31877D01*
G01X41968Y31877D01*
G01X42059Y31922D01*
G01X42105Y31968D01*
G01X42151Y32062D01*
G01X42245Y32339D01*
G01X42291Y32430D01*
G01X42336Y32476D01*
G01X42430Y32524D01*
G01X42567Y32524D01*
G01X42659Y32430D01*
G01X42707Y32293D01*
G01X42707Y32108D01*
G01X42659Y31968D01*
G01X42567Y31877D01*
G01X41737Y32829D02*
G01X42707Y32829D01*
G01X42707Y32829D02*
G01X42707Y33383D01*
G01X41737Y33688D02*
G01X42707Y33688D01*
G01X41737Y33688D02*
G01X41737Y34102D01*
G01X41783Y34241D01*
G01X41828Y34287D01*
G01X41922Y34333D01*
G01X42059Y34333D01*
G01X42151Y34287D01*
G01X42199Y34241D01*
G01X42245Y34102D01*
G01X42245Y33688D01*
G01X41656Y28562D02*
G01X41747Y28610D01*
G01X41887Y28747D01*
G01X41887Y27777D01*
G01X42191Y28747D02*
G01X42191Y27777D01*
G01X42191Y28747D02*
G01X42608Y28747D01*
G01X42745Y28702D01*
G01X42791Y28656D01*
G01X42837Y28562D01*
G01X42837Y28470D01*
G01X42791Y28379D01*
G01X42745Y28333D01*
G01X42608Y28285D01*
G01X42191Y28285D02*
G01X42608Y28285D01*
G01X42745Y28239D01*
G01X42791Y28194D01*
G01X42837Y28102D01*
G01X42837Y27962D01*
G01X42791Y27871D01*
G01X42745Y27825D01*
G01X42608Y27777D01*
G01X42191Y27777D01*
G01X39243Y28643D02*
G01X39334Y28691D01*
G01X39474Y28829D01*
G01X39474Y27858D01*
G01X40147Y28829D02*
G01X39778Y27858D01*
G01X40147Y28829D02*
G01X40518Y27858D01*
G01X39916Y28183D02*
G01X40378Y28183D01*
G01X36621Y28597D02*
G01X36621Y28643D01*
G01X36667Y28737D01*
G01X36715Y28783D01*
G01X36807Y28828D01*
G01X36992Y28828D01*
G01X37084Y28783D01*
G01X37129Y28737D01*
G01X37175Y28643D01*
G01X37175Y28552D01*
G01X37129Y28460D01*
G01X37038Y28320D01*
G01X36576Y27858D01*
G01X37223Y27858D01*
G01X37896Y28828D02*
G01X37528Y27858D01*
G01X37896Y28828D02*
G01X38265Y27858D01*
G01X37665Y28183D02*
G01X38127Y28183D01*
G01X33827Y28597D02*
G01X33827Y28643D01*
G01X33873Y28737D01*
G01X33921Y28783D01*
G01X34013Y28828D01*
G01X34198Y28828D01*
G01X34290Y28783D01*
G01X34335Y28737D01*
G01X34381Y28643D01*
G01X34381Y28552D01*
G01X34335Y28460D01*
G01X34244Y28320D01*
G01X33782Y27858D01*
G01X34429Y27858D01*
G01X34734Y28828D02*
G01X34734Y27858D01*
G01X34734Y28828D02*
G01X35148Y28828D01*
G01X35288Y28783D01*
G01X35333Y28737D01*
G01X35379Y28643D01*
G01X35379Y28552D01*
G01X35333Y28460D01*
G01X35288Y28414D01*
G01X35148Y28366D01*
G01X34734Y28366D02*
G01X35148Y28366D01*
G01X35288Y28320D01*
G01X35333Y28275D01*
G01X35379Y28183D01*
G01X35379Y28044D01*
G01X35333Y27952D01*
G01X35288Y27906D01*
G01X35148Y27858D01*
G01X34734Y27858D01*
G01X64643Y28435D02*
G01X64734Y28483D01*
G01X64874Y28620D01*
G01X64874Y27650D01*
G01X65178Y28620D02*
G01X65178Y27650D01*
G01X65178Y28620D02*
G01X65595Y28620D01*
G01X65732Y28575D01*
G01X65778Y28529D01*
G01X65824Y28435D01*
G01X65824Y28343D01*
G01X65778Y28252D01*
G01X65732Y28206D01*
G01X65595Y28158D01*
G01X65178Y28158D02*
G01X65595Y28158D01*
G01X65732Y28112D01*
G01X65778Y28067D01*
G01X65824Y27975D01*
G01X65824Y27835D01*
G01X65778Y27744D01*
G01X65732Y27698D01*
G01X65595Y27650D01*
G01X65178Y27650D01*
G01X62230Y28516D02*
G01X62321Y28564D01*
G01X62461Y28702D01*
G01X62461Y27731D01*
G01X63134Y28702D02*
G01X62765Y27731D01*
G01X63134Y28702D02*
G01X63505Y27731D01*
G01X62903Y28056D02*
G01X63365Y28056D01*
G01X59608Y28470D02*
G01X59608Y28516D01*
G01X59654Y28610D01*
G01X59702Y28656D01*
G01X59794Y28701D01*
G01X59979Y28701D01*
G01X60071Y28656D01*
G01X60116Y28610D01*
G01X60162Y28516D01*
G01X60162Y28425D01*
G01X60116Y28333D01*
G01X60025Y28193D01*
G01X59563Y27731D01*
G01X60210Y27731D01*
G01X60883Y28701D02*
G01X60515Y27731D01*
G01X60883Y28701D02*
G01X61252Y27731D01*
G01X60652Y28056D02*
G01X61114Y28056D01*
G01X56814Y28470D02*
G01X56814Y28516D01*
G01X56860Y28610D01*
G01X56908Y28656D01*
G01X57000Y28701D01*
G01X57185Y28701D01*
G01X57277Y28656D01*
G01X57322Y28610D01*
G01X57368Y28516D01*
G01X57368Y28425D01*
G01X57322Y28333D01*
G01X57231Y28193D01*
G01X56769Y27731D01*
G01X57416Y27731D01*
G01X57721Y28701D02*
G01X57721Y27731D01*
G01X57721Y28701D02*
G01X58135Y28701D01*
G01X58275Y28656D01*
G01X58320Y28610D01*
G01X58366Y28516D01*
G01X58366Y28425D01*
G01X58320Y28333D01*
G01X58275Y28287D01*
G01X58135Y28239D01*
G01X57721Y28239D02*
G01X58135Y28239D01*
G01X58275Y28193D01*
G01X58320Y28148D01*
G01X58366Y28056D01*
G01X58366Y27917D01*
G01X58320Y27825D01*
G01X58275Y27779D01*
G01X58135Y27731D01*
G01X57721Y27731D01*
G01X41656Y50025D02*
G01X41747Y50073D01*
G01X41887Y50210D01*
G01X41887Y49240D01*
G01X42191Y50210D02*
G01X42191Y49240D01*
G01X42191Y50210D02*
G01X42608Y50210D01*
G01X42745Y50165D01*
G01X42791Y50119D01*
G01X42837Y50025D01*
G01X42837Y49933D01*
G01X42791Y49842D01*
G01X42745Y49796D01*
G01X42608Y49748D01*
G01X42191Y49748D02*
G01X42608Y49748D01*
G01X42745Y49702D01*
G01X42791Y49657D01*
G01X42837Y49565D01*
G01X42837Y49425D01*
G01X42791Y49334D01*
G01X42745Y49288D01*
G01X42608Y49240D01*
G01X42191Y49240D01*
G01X39243Y50106D02*
G01X39334Y50154D01*
G01X39474Y50292D01*
G01X39474Y49321D01*
G01X40147Y50292D02*
G01X39778Y49321D01*
G01X40147Y50292D02*
G01X40518Y49321D01*
G01X39916Y49646D02*
G01X40378Y49646D01*
G01X36621Y50060D02*
G01X36621Y50106D01*
G01X36667Y50200D01*
G01X36715Y50246D01*
G01X36807Y50291D01*
G01X36992Y50291D01*
G01X37084Y50246D01*
G01X37129Y50200D01*
G01X37175Y50106D01*
G01X37175Y50015D01*
G01X37129Y49923D01*
G01X37038Y49783D01*
G01X36576Y49321D01*
G01X37223Y49321D01*
G01X37896Y50291D02*
G01X37528Y49321D01*
G01X37896Y50291D02*
G01X38265Y49321D01*
G01X37665Y49646D02*
G01X38127Y49646D01*
G01X33827Y50060D02*
G01X33827Y50106D01*
G01X33873Y50200D01*
G01X33921Y50246D01*
G01X34013Y50291D01*
G01X34198Y50291D01*
G01X34290Y50246D01*
G01X34335Y50200D01*
G01X34381Y50106D01*
G01X34381Y50015D01*
G01X34335Y49923D01*
G01X34244Y49783D01*
G01X33782Y49321D01*
G01X34429Y49321D01*
G01X34734Y50291D02*
G01X34734Y49321D01*
G01X34734Y50291D02*
G01X35148Y50291D01*
G01X35288Y50246D01*
G01X35333Y50200D01*
G01X35379Y50106D01*
G01X35379Y50015D01*
G01X35333Y49923D01*
G01X35288Y49877D01*
G01X35148Y49829D01*
G01X34734Y49829D02*
G01X35148Y49829D01*
G01X35288Y49783D01*
G01X35333Y49738D01*
G01X35379Y49646D01*
G01X35379Y49507D01*
G01X35333Y49415D01*
G01X35288Y49369D01*
G01X35148Y49321D01*
G01X34734Y49321D01*
G01X64516Y50025D02*
G01X64607Y50073D01*
G01X64747Y50210D01*
G01X64747Y49240D01*
G01X65051Y50210D02*
G01X65051Y49240D01*
G01X65051Y50210D02*
G01X65468Y50210D01*
G01X65605Y50165D01*
G01X65651Y50119D01*
G01X65697Y50025D01*
G01X65697Y49933D01*
G01X65651Y49842D01*
G01X65605Y49796D01*
G01X65468Y49748D01*
G01X65051Y49748D02*
G01X65468Y49748D01*
G01X65605Y49702D01*
G01X65651Y49657D01*
G01X65697Y49565D01*
G01X65697Y49425D01*
G01X65651Y49334D01*
G01X65605Y49288D01*
G01X65468Y49240D01*
G01X65051Y49240D01*
G01X62103Y50106D02*
G01X62194Y50154D01*
G01X62334Y50292D01*
G01X62334Y49321D01*
G01X63007Y50292D02*
G01X62638Y49321D01*
G01X63007Y50292D02*
G01X63378Y49321D01*
G01X62776Y49646D02*
G01X63238Y49646D01*
G01X59481Y50060D02*
G01X59481Y50106D01*
G01X59527Y50200D01*
G01X59575Y50246D01*
G01X59667Y50291D01*
G01X59852Y50291D01*
G01X59944Y50246D01*
G01X59989Y50200D01*
G01X60035Y50106D01*
G01X60035Y50015D01*
G01X59989Y49923D01*
G01X59898Y49783D01*
G01X59436Y49321D01*
G01X60083Y49321D01*
G01X60756Y50291D02*
G01X60388Y49321D01*
G01X60756Y50291D02*
G01X61125Y49321D01*
G01X60525Y49646D02*
G01X60987Y49646D01*
G01X56687Y50060D02*
G01X56687Y50106D01*
G01X56733Y50200D01*
G01X56781Y50246D01*
G01X56873Y50291D01*
G01X57058Y50291D01*
G01X57150Y50246D01*
G01X57195Y50200D01*
G01X57241Y50106D01*
G01X57241Y50015D01*
G01X57195Y49923D01*
G01X57104Y49783D01*
G01X56642Y49321D01*
G01X57289Y49321D01*
G01X57594Y50291D02*
G01X57594Y49321D01*
G01X57594Y50291D02*
G01X58008Y50291D01*
G01X58148Y50246D01*
G01X58193Y50200D01*
G01X58239Y50106D01*
G01X58239Y50015D01*
G01X58193Y49923D01*
G01X58148Y49877D01*
G01X58008Y49829D01*
G01X57594Y49829D02*
G01X58008Y49829D01*
G01X58148Y49783D01*
G01X58193Y49738D01*
G01X58239Y49646D01*
G01X58239Y49507D01*
G01X58193Y49415D01*
G01X58148Y49369D01*
G01X58008Y49321D01*
G01X57594Y49321D01*
G54D29*
G01X27051Y49324D02*
G01X27155Y49375D01*
G01X27310Y49529D01*
G01X27310Y48440D01*
G01X27652Y49166D02*
G01X27652Y48648D01*
G01X27706Y48491D01*
G01X27810Y48440D01*
G01X27965Y48440D01*
G01X28069Y48491D01*
G01X28224Y48648D01*
G01X28224Y49166D02*
G01X28224Y48440D01*
G01X28567Y49529D02*
G01X28567Y48440D01*
G01X28567Y49529D02*
G01X29243Y49529D01*
G01X28567Y49011D02*
G01X28983Y49011D01*
G54D28*
G01X27787Y45897D02*
G01X27787Y47371D01*
G01X28524Y46634D02*
G01X27050Y46634D01*
G54D30*
G01X9580Y49771D02*
G01X9425Y49717D01*
G01X9321Y49563D01*
G01X9271Y49303D01*
G01X9271Y49149D01*
G01X9321Y48889D01*
G01X9425Y48734D01*
G01X9580Y48681D01*
G01X9685Y48681D01*
G01X9840Y48734D01*
G01X9944Y48889D01*
G01X9997Y49149D01*
G01X9997Y49303D01*
G01X9944Y49563D01*
G01X9840Y49717D01*
G01X9685Y49771D01*
G01X9580Y49771D01*
G01X10391Y48940D02*
G01X10337Y48889D01*
G01X10391Y48839D01*
G01X10441Y48889D01*
G01X10391Y48940D01*
G01X10784Y49563D02*
G01X10886Y49616D01*
G01X11043Y49771D01*
G01X11043Y48681D01*
G01X11384Y49408D02*
G01X11384Y48889D01*
G01X11437Y48734D01*
G01X11541Y48681D01*
G01X11696Y48681D01*
G01X11800Y48734D01*
G01X11955Y48889D01*
G01X11955Y49408D02*
G01X11955Y48681D01*
G01X12296Y49771D02*
G01X12296Y48681D01*
G01X12296Y49771D02*
G01X12971Y49771D01*
G01X12296Y49253D02*
G01X12712Y49253D01*
G54D29*
G01X27068Y40241D02*
G01X27015Y40345D01*
G01X26911Y40449D01*
G01X26809Y40500D01*
G01X26601Y40500D01*
G01X26497Y40449D01*
G01X26393Y40345D01*
G01X26339Y40241D01*
G01X26289Y40086D01*
G01X26289Y39827D01*
G01X26339Y39669D01*
G01X26393Y39565D01*
G01X26497Y39461D01*
G01X26601Y39410D01*
G01X26809Y39410D01*
G01X26911Y39461D01*
G01X27015Y39565D01*
G01X27068Y39669D01*
G01X27411Y40294D02*
G01X27515Y40345D01*
G01X27670Y40500D01*
G01X27670Y39410D01*
G54D28*
G01X33350Y38633D02*
G01X31876Y38633D01*
G01X32613Y39370D02*
G01X32613Y37896D01*
G54D29*
G01X49801Y40241D02*
G01X49748Y40345D01*
G01X49644Y40449D01*
G01X49542Y40500D01*
G01X49334Y40500D01*
G01X49230Y40449D01*
G01X49126Y40345D01*
G01X49072Y40241D01*
G01X49022Y40086D01*
G01X49022Y39827D01*
G01X49072Y39669D01*
G01X49126Y39565D01*
G01X49230Y39461D01*
G01X49334Y39410D01*
G01X49542Y39410D01*
G01X49644Y39461D01*
G01X49748Y39565D01*
G01X49801Y39669D01*
G01X50195Y40241D02*
G01X50195Y40294D01*
G01X50248Y40398D01*
G01X50299Y40449D01*
G01X50403Y40500D01*
G01X50612Y40500D01*
G01X50716Y40449D01*
G01X50766Y40398D01*
G01X50820Y40294D01*
G01X50820Y40190D01*
G01X50766Y40086D01*
G01X50662Y39928D01*
G01X50144Y39410D01*
G01X50871Y39410D01*
G54D28*
G01X56464Y37871D02*
G01X54990Y37871D01*
G01X55727Y38608D02*
G01X55727Y37134D01*
G54D29*
G01X49801Y18663D02*
G01X49748Y18768D01*
G01X49644Y18872D01*
G01X49542Y18922D01*
G01X49334Y18922D01*
G01X49230Y18872D01*
G01X49126Y18768D01*
G01X49072Y18663D01*
G01X49022Y18508D01*
G01X49022Y18249D01*
G01X49072Y18092D01*
G01X49126Y17988D01*
G01X49230Y17884D01*
G01X49334Y17833D01*
G01X49542Y17833D01*
G01X49644Y17884D01*
G01X49748Y17988D01*
G01X49801Y18092D01*
G01X50662Y18922D02*
G01X50144Y18196D01*
G01X50924Y18196D01*
G01X50662Y18922D02*
G01X50662Y17833D01*
G54D28*
G01X56464Y16916D02*
G01X54990Y16916D01*
G01X55727Y17653D02*
G01X55727Y16179D01*
G54D29*
G01X26560Y18536D02*
G01X26507Y18641D01*
G01X26403Y18745D01*
G01X26301Y18796D01*
G01X26093Y18796D01*
G01X25989Y18745D01*
G01X25885Y18641D01*
G01X25831Y18536D01*
G01X25781Y18381D01*
G01X25781Y18122D01*
G01X25831Y17965D01*
G01X25885Y17861D01*
G01X25989Y17757D01*
G01X26093Y17706D01*
G01X26301Y17706D01*
G01X26403Y17757D01*
G01X26507Y17861D01*
G01X26560Y17965D01*
G01X27007Y18796D02*
G01X27579Y18796D01*
G01X27266Y18381D01*
G01X27421Y18381D01*
G01X27525Y18328D01*
G01X27579Y18277D01*
G01X27630Y18122D01*
G01X27630Y18018D01*
G01X27579Y17861D01*
G01X27475Y17757D01*
G01X27317Y17706D01*
G01X27162Y17706D01*
G01X27007Y17757D01*
G01X26954Y17810D01*
G01X26903Y17914D01*
G54D28*
G01X33350Y16789D02*
G01X31876Y16789D01*
G01X32613Y17526D02*
G01X32613Y16052D01*
G01X12320Y31611D02*
G01X12411Y31657D01*
G01X12548Y31797D01*
G01X12548Y30826D01*
G01X12901Y31565D02*
G01X12901Y31611D01*
G01X12947Y31703D01*
G01X12993Y31748D01*
G01X13084Y31797D01*
G01X13270Y31797D01*
G01X13361Y31748D01*
G01X13409Y31703D01*
G01X13455Y31611D01*
G01X13455Y31520D01*
G01X13409Y31426D01*
G01X13315Y31289D01*
G01X12853Y30826D01*
G01X13501Y30826D01*
G01X13806Y31797D02*
G01X14174Y30826D01*
G01X14545Y31797D02*
G01X14174Y30826D01*
G01X15933Y31564D02*
G01X15887Y31658D01*
G01X15793Y31750D01*
G01X15702Y31795D01*
G01X15516Y31795D01*
G01X15425Y31750D01*
G01X15331Y31658D01*
G01X15285Y31564D01*
G01X15240Y31427D01*
G01X15240Y31196D01*
G01X15285Y31056D01*
G01X15331Y30965D01*
G01X15425Y30873D01*
G01X15516Y30825D01*
G01X15702Y30825D01*
G01X15793Y30873D01*
G01X15887Y30965D01*
G01X15933Y31056D01*
G01X15933Y31196D01*
G01X15702Y31196D02*
G01X15933Y31196D01*
G01X16238Y31795D02*
G01X16238Y30825D01*
G01X16238Y31795D02*
G01X16883Y30825D01*
G01X16883Y31795D02*
G01X16883Y30825D01*
G01X17188Y31795D02*
G01X17188Y30825D01*
G01X17188Y31795D02*
G01X17513Y31795D01*
G01X17650Y31750D01*
G01X17741Y31658D01*
G01X17790Y31564D01*
G01X17835Y31427D01*
G01X17835Y31196D01*
G01X17790Y31056D01*
G01X17741Y30965D01*
G01X17650Y30873D01*
G01X17513Y30825D01*
G01X17188Y30825D01*
G54D29*
G01X79603Y34442D02*
G01X79557Y34442D01*
G01X79466Y34488D01*
G01X79420Y34533D01*
G01X79375Y34622D01*
G01X79375Y34805D01*
G01X79420Y34897D01*
G01X79466Y34942D01*
G01X79557Y34988D01*
G01X79649Y34988D01*
G01X79738Y34942D01*
G01X79875Y34851D01*
G01X80330Y34396D01*
G01X80330Y35034D01*
G01X79375Y35333D02*
G01X80330Y35333D01*
G01X79375Y35968D02*
G01X80012Y35333D01*
G01X79783Y35560D02*
G01X80330Y35968D01*
G01X81970Y34523D02*
G01X81925Y34615D01*
G01X81788Y34749D01*
G01X82743Y34749D01*
G01X81788Y35052D02*
G01X82743Y35052D01*
G01X81788Y35687D02*
G01X82425Y35052D01*
G01X82196Y35278D02*
G01X82743Y35687D01*
G01X13589Y11968D02*
G01X14544Y11968D01*
G01X13589Y11968D02*
G01X13589Y12377D01*
G01X13634Y12514D01*
G01X13680Y12560D01*
G01X13771Y12606D01*
G01X13863Y12606D01*
G01X13952Y12560D01*
G01X13997Y12514D01*
G01X14043Y12377D01*
G01X14043Y11968D01*
G01X14043Y12285D02*
G01X14544Y12606D01*
G01X13817Y12951D02*
G01X13771Y12951D01*
G01X13680Y12994D01*
G01X13634Y13040D01*
G01X13589Y13131D01*
G01X13589Y13314D01*
G01X13634Y13403D01*
G01X13680Y13449D01*
G01X13771Y13495D01*
G01X13863Y13495D01*
G01X13952Y13449D01*
G01X14089Y13360D01*
G01X14544Y12905D01*
G01X14544Y13540D01*
G01X13589Y13840D02*
G01X14544Y13840D01*
G01X13589Y14478D02*
G01X14226Y13840D01*
G01X13997Y14069D02*
G01X14544Y14478D01*
G01X16256Y12250D02*
G01X17211Y12250D01*
G01X16256Y12250D02*
G01X16256Y12659D01*
G01X16301Y12796D01*
G01X16347Y12842D01*
G01X16438Y12887D01*
G01X16530Y12887D01*
G01X16619Y12842D01*
G01X16664Y12796D01*
G01X16710Y12659D01*
G01X16710Y12250D01*
G01X16710Y12567D02*
G01X17211Y12887D01*
G01X16438Y13187D02*
G01X16393Y13276D01*
G01X16256Y13413D01*
G01X17211Y13413D01*
G01X16256Y13713D02*
G01X17211Y13713D01*
G01X16256Y14351D02*
G01X16893Y13713D01*
G01X16664Y13942D02*
G01X17211Y14351D01*
G01X71374Y49911D02*
G01X71374Y48955D01*
G01X71374Y49911D02*
G01X71782Y49911D01*
G01X71920Y49865D01*
G01X71965Y49819D01*
G01X72011Y49728D01*
G01X72011Y49636D01*
G01X71965Y49547D01*
G01X71920Y49502D01*
G01X71782Y49456D01*
G01X71374Y49456D01*
G01X71691Y49456D02*
G01X72011Y48955D01*
G01X72357Y49682D02*
G01X72357Y49728D01*
G01X72400Y49819D01*
G01X72445Y49865D01*
G01X72537Y49911D01*
G01X72720Y49911D01*
G01X72809Y49865D01*
G01X72854Y49819D01*
G01X72900Y49728D01*
G01X72900Y49636D01*
G01X72854Y49547D01*
G01X72765Y49410D01*
G01X72311Y48955D01*
G01X72946Y48955D01*
G01X73291Y49682D02*
G01X73291Y49728D01*
G01X73337Y49819D01*
G01X73383Y49865D01*
G01X73474Y49911D01*
G01X73654Y49911D01*
G01X73746Y49865D01*
G01X73792Y49819D01*
G01X73837Y49728D01*
G01X73837Y49636D01*
G01X73792Y49547D01*
G01X73700Y49410D01*
G01X73246Y48955D01*
G01X73883Y48955D01*
G01X74455Y49911D02*
G01X74320Y49865D01*
G01X74228Y49728D01*
G01X74183Y49502D01*
G01X74183Y49364D01*
G01X74228Y49138D01*
G01X74320Y49001D01*
G01X74455Y48955D01*
G01X74546Y48955D01*
G01X74683Y49001D01*
G01X74775Y49138D01*
G01X74818Y49364D01*
G01X74818Y49502D01*
G01X74775Y49728D01*
G01X74683Y49865D01*
G01X74546Y49911D01*
G01X74455Y49911D01*
G54D31*
G01X82712Y50673D02*
G01X82712Y50711D01*
G01X82750Y50782D01*
G01X82786Y50817D01*
G01X82859Y50855D01*
G01X83004Y50855D01*
G01X83075Y50817D01*
G01X83113Y50782D01*
G01X83149Y50711D01*
G01X83149Y50637D01*
G01X83113Y50563D01*
G01X83040Y50454D01*
G01X82677Y50091D01*
G01X83185Y50091D01*
G01X83461Y50673D02*
G01X83461Y50711D01*
G01X83499Y50782D01*
G01X83535Y50817D01*
G01X83606Y50855D01*
G01X83753Y50855D01*
G01X83825Y50817D01*
G01X83863Y50782D01*
G01X83898Y50711D01*
G01X83898Y50637D01*
G01X83863Y50563D01*
G01X83789Y50454D01*
G01X83426Y50091D01*
G01X83934Y50091D01*
G54D28*
G01X77782Y39565D02*
G01X77736Y39659D01*
G01X77642Y39751D01*
G01X77551Y39796D01*
G01X77365Y39796D01*
G01X77274Y39751D01*
G01X77180Y39659D01*
G01X77134Y39565D01*
G01X77089Y39428D01*
G01X77089Y39197D01*
G01X77134Y39057D01*
G01X77180Y38966D01*
G01X77274Y38874D01*
G01X77365Y38826D01*
G01X77551Y38826D01*
G01X77642Y38874D01*
G01X77736Y38966D01*
G01X77782Y39057D01*
G01X77782Y39197D01*
G01X77551Y39197D02*
G01X77782Y39197D01*
G01X78087Y39796D02*
G01X78087Y38826D01*
G01X78087Y39796D02*
G01X78732Y38826D01*
G01X78732Y39796D02*
G01X78732Y38826D01*
G01X79037Y39796D02*
G01X79037Y38826D01*
G01X79037Y39796D02*
G01X79362Y39796D01*
G01X79499Y39751D01*
G01X79590Y39659D01*
G01X79639Y39565D01*
G01X79684Y39428D01*
G01X79684Y39197D01*
G01X79639Y39057D01*
G01X79590Y38966D01*
G01X79499Y38874D01*
G01X79362Y38826D01*
G01X79037Y38826D01*
G01X77411Y37129D02*
G01X77411Y36159D01*
G01X77089Y37129D02*
G01X77736Y37129D01*
G01X78041Y37129D02*
G01X78686Y36159D01*
G01X78686Y37129D02*
G01X78041Y36159D01*
G01X77343Y34544D02*
G01X77343Y33573D01*
G01X77343Y34544D02*
G01X77759Y34544D01*
G01X77896Y34498D01*
G01X77942Y34452D01*
G01X77990Y34358D01*
G01X77990Y34267D01*
G01X77942Y34175D01*
G01X77896Y34130D01*
G01X77759Y34081D01*
G01X77343Y34081D01*
G01X77665Y34081D02*
G01X77990Y33573D01*
G01X78295Y34544D02*
G01X78940Y33573D01*
G01X78940Y34544D02*
G01X78295Y33573D01*
G01X77089Y42209D02*
G01X77457Y41239D01*
G01X77828Y42209D02*
G01X77457Y41239D01*
G01X78826Y41978D02*
G01X78778Y42072D01*
G01X78686Y42163D01*
G01X78595Y42209D01*
G01X78409Y42209D01*
G01X78318Y42163D01*
G01X78224Y42072D01*
G01X78178Y41978D01*
G01X78132Y41841D01*
G01X78132Y41610D01*
G01X78178Y41470D01*
G01X78224Y41379D01*
G01X78318Y41287D01*
G01X78409Y41239D01*
G01X78595Y41239D01*
G01X78686Y41287D01*
G01X78778Y41379D01*
G01X78826Y41470D01*
G01X79822Y41978D02*
G01X79776Y42072D01*
G01X79684Y42163D01*
G01X79590Y42209D01*
G01X79408Y42209D01*
G01X79314Y42163D01*
G01X79222Y42072D01*
G01X79176Y41978D01*
G01X79131Y41841D01*
G01X79131Y41610D01*
G01X79176Y41470D01*
G01X79222Y41379D01*
G01X79314Y41287D01*
G01X79408Y41239D01*
G01X79590Y41239D01*
G01X79684Y41287D01*
G01X79776Y41379D01*
G01X79822Y41470D01*
G01X77216Y44831D02*
G01X77216Y43860D01*
G01X77216Y44831D02*
G01X77815Y44831D01*
G01X77216Y44368D02*
G01X77584Y44368D01*
G01X77216Y43860D02*
G01X77815Y43860D01*
G01X78120Y44831D02*
G01X78120Y43860D01*
G01X78120Y44831D02*
G01X78767Y43860D01*
G01X78767Y44831D02*
G01X78767Y43860D01*
G01X10853Y17205D02*
G01X10805Y17297D01*
G01X10667Y17437D01*
G01X11638Y17437D01*
G01X10899Y17787D02*
G01X10853Y17787D01*
G01X10759Y17833D01*
G01X10713Y17879D01*
G01X10667Y17973D01*
G01X10667Y18158D01*
G01X10713Y18249D01*
G01X10759Y18295D01*
G01X10853Y18341D01*
G01X10944Y18341D01*
G01X11036Y18295D01*
G01X11175Y18204D01*
G01X11638Y17741D01*
G01X11638Y18387D01*
G01X10667Y18691D02*
G01X11638Y19062D01*
G01X10667Y19431D02*
G01X11638Y19062D01*
G01X20238Y31750D02*
G01X19776Y31750D01*
G01X19730Y31336D01*
G01X19776Y31381D01*
G01X19916Y31427D01*
G01X20053Y31427D01*
G01X20193Y31381D01*
G01X20284Y31287D01*
G01X20332Y31150D01*
G01X20332Y31056D01*
G01X20284Y30919D01*
G01X20193Y30828D01*
G01X20053Y30779D01*
G01X19916Y30779D01*
G01X19776Y30828D01*
G01X19730Y30873D01*
G01X19685Y30965D01*
G01X20637Y31750D02*
G01X21005Y30779D01*
G01X21374Y31750D02*
G01X21005Y30779D01*
G01X23172Y31564D02*
G01X23126Y31658D01*
G01X23032Y31750D01*
G01X22941Y31795D01*
G01X22755Y31795D01*
G01X22664Y31750D01*
G01X22570Y31658D01*
G01X22524Y31564D01*
G01X22479Y31427D01*
G01X22479Y31196D01*
G01X22524Y31056D01*
G01X22570Y30965D01*
G01X22664Y30873D01*
G01X22755Y30825D01*
G01X22941Y30825D01*
G01X23032Y30873D01*
G01X23126Y30965D01*
G01X23172Y31056D01*
G01X23172Y31196D01*
G01X22941Y31196D02*
G01X23172Y31196D01*
G01X23477Y31795D02*
G01X23477Y30825D01*
G01X23477Y31795D02*
G01X24122Y30825D01*
G01X24122Y31795D02*
G01X24122Y30825D01*
G01X24427Y31795D02*
G01X24427Y30825D01*
G01X24427Y31795D02*
G01X24752Y31795D01*
G01X24889Y31750D01*
G01X24980Y31658D01*
G01X25029Y31564D01*
G01X25074Y31427D01*
G01X25074Y31196D01*
G01X25029Y31056D01*
G01X24980Y30965D01*
G01X24889Y30873D01*
G01X24752Y30825D01*
G01X24427Y30825D01*
G01X43815Y37891D02*
G01X43815Y36921D01*
G01X43815Y37891D02*
G01X44231Y37891D01*
G01X44368Y37845D01*
G01X44414Y37800D01*
G01X44462Y37706D01*
G01X44462Y37614D01*
G01X44414Y37523D01*
G01X44368Y37477D01*
G01X44231Y37429D01*
G01X43815Y37429D01*
G01X44137Y37429D02*
G01X44462Y36921D01*
G01X44767Y37292D02*
G01X45321Y37292D01*
G01X45321Y37383D01*
G01X45275Y37477D01*
G01X45227Y37523D01*
G01X45135Y37569D01*
G01X44996Y37569D01*
G01X44904Y37523D01*
G01X44813Y37429D01*
G01X44767Y37292D01*
G01X44767Y37198D01*
G01X44813Y37061D01*
G01X44904Y36969D01*
G01X44996Y36921D01*
G01X45135Y36921D01*
G01X45227Y36969D01*
G01X45321Y37061D01*
G01X46134Y37429D02*
G01X46088Y37523D01*
G01X45948Y37569D01*
G01X45808Y37569D01*
G01X45671Y37523D01*
G01X45626Y37429D01*
G01X45671Y37337D01*
G01X45763Y37292D01*
G01X45994Y37246D01*
G01X46088Y37198D01*
G01X46134Y37106D01*
G01X46134Y37061D01*
G01X46088Y36969D01*
G01X45948Y36921D01*
G01X45808Y36921D01*
G01X45671Y36969D01*
G01X45626Y37061D01*
G54D32*
G01X5715Y2067D02*
G01X5951Y1242D01*
G01X6187Y2067D02*
G01X5951Y1242D01*
G01X6187Y2067D02*
G01X6423Y1242D01*
G01X6659Y2067D02*
G01X6423Y1242D01*
G01X7051Y2067D02*
G01X7287Y1242D01*
G01X7523Y2067D02*
G01X7287Y1242D01*
G01X7523Y2067D02*
G01X7759Y1242D01*
G01X7995Y2067D02*
G01X7759Y1242D01*
G01X8387Y2067D02*
G01X8623Y1242D01*
G01X8859Y2067D02*
G01X8623Y1242D01*
G01X8859Y2067D02*
G01X9095Y1242D01*
G01X9331Y2067D02*
G01X9095Y1242D01*
G01X9781Y1536D02*
G01X9720Y1478D01*
G01X9781Y1417D01*
G01X9839Y1478D01*
G01X9781Y1536D01*
G01X10228Y2481D02*
G01X10228Y1242D01*
G01X11056Y2481D02*
G01X11056Y1242D01*
G01X10228Y1892D02*
G01X11056Y1892D01*
G01X11742Y2067D02*
G01X11623Y2009D01*
G01X11506Y1892D01*
G01X11447Y1714D01*
G01X11447Y1595D01*
G01X11506Y1417D01*
G01X11623Y1300D01*
G01X11742Y1242D01*
G01X11920Y1242D01*
G01X12037Y1300D01*
G01X12156Y1417D01*
G01X12214Y1595D01*
G01X12214Y1714D01*
G01X12156Y1892D01*
G01X12037Y2009D01*
G01X11920Y2067D01*
G01X11742Y2067D01*
G01X12606Y2067D02*
G01X12842Y1242D01*
G01X13078Y2067D02*
G01X12842Y1242D01*
G01X13078Y2067D02*
G01X13314Y1242D01*
G01X13550Y2067D02*
G01X13314Y1242D01*
G01X14353Y2481D02*
G01X14353Y1242D01*
G01X13939Y2481D02*
G01X14767Y2481D01*
G01X15453Y2067D02*
G01X15333Y2009D01*
G01X15217Y1892D01*
G01X15158Y1714D01*
G01X15158Y1595D01*
G01X15217Y1417D01*
G01X15333Y1300D01*
G01X15453Y1242D01*
G01X15631Y1242D01*
G01X15748Y1300D01*
G01X15867Y1417D01*
G01X15925Y1595D01*
G01X15925Y1714D01*
G01X15867Y1892D01*
G01X15748Y2009D01*
G01X15631Y2067D01*
G01X15453Y2067D01*
G01X16316Y2481D02*
G01X16316Y1242D01*
G01X16316Y2481D02*
G01X16789Y1242D01*
G01X17261Y2481D02*
G01X16789Y1242D01*
G01X17261Y2481D02*
G01X17261Y1242D01*
G01X17650Y1714D02*
G01X18361Y1714D01*
G01X18361Y1831D01*
G01X18300Y1950D01*
G01X18242Y2009D01*
G01X18122Y2067D01*
G01X17947Y2067D01*
G01X17828Y2009D01*
G01X17711Y1892D01*
G01X17650Y1714D01*
G01X17650Y1595D01*
G01X17711Y1417D01*
G01X17828Y1300D01*
G01X17947Y1242D01*
G01X18122Y1242D01*
G01X18242Y1300D01*
G01X18361Y1417D01*
G01X19458Y1892D02*
G01X19342Y2009D01*
G01X19222Y2067D01*
G01X19044Y2067D01*
G01X18928Y2009D01*
G01X18808Y1892D01*
G01X18750Y1714D01*
G01X18750Y1595D01*
G01X18808Y1417D01*
G01X18928Y1300D01*
G01X19044Y1242D01*
G01X19222Y1242D01*
G01X19342Y1300D01*
G01X19458Y1417D01*
G01X19850Y2481D02*
G01X19850Y1242D01*
G01X19850Y1831D02*
G01X20027Y2009D01*
G01X20144Y2067D01*
G01X20322Y2067D01*
G01X20439Y2009D01*
G01X20500Y1831D01*
G01X20500Y1242D01*
G01X21597Y2067D02*
G01X21597Y1242D01*
G01X21597Y1892D02*
G01X21480Y2009D01*
G01X21361Y2067D01*
G01X21186Y2067D01*
G01X21066Y2009D01*
G01X20947Y1892D01*
G01X20888Y1714D01*
G01X20888Y1595D01*
G01X20947Y1417D01*
G01X21066Y1300D01*
G01X21186Y1242D01*
G01X21361Y1242D01*
G01X21480Y1300D01*
G01X21597Y1417D01*
G01X22166Y2481D02*
G01X22166Y1478D01*
G01X22225Y1300D01*
G01X22344Y1242D01*
G01X22461Y1242D01*
G01X21988Y2067D02*
G01X22402Y2067D01*
G01X22852Y2067D02*
G01X22852Y1242D01*
G01X22852Y1714D02*
G01X22910Y1892D01*
G01X23027Y2009D01*
G01X23147Y2067D01*
G01X23324Y2067D01*
G01X24010Y2067D02*
G01X23891Y2009D01*
G01X23774Y1892D01*
G01X23713Y1714D01*
G01X23713Y1595D01*
G01X23774Y1417D01*
G01X23891Y1300D01*
G01X24010Y1242D01*
G01X24185Y1242D01*
G01X24305Y1300D01*
G01X24422Y1417D01*
G01X24483Y1595D01*
G01X24483Y1714D01*
G01X24422Y1892D01*
G01X24305Y2009D01*
G01X24185Y2067D01*
G01X24010Y2067D01*
G01X24871Y2067D02*
G01X24871Y1242D01*
G01X24871Y1831D02*
G01X25049Y2009D01*
G01X25168Y2067D01*
G01X25344Y2067D01*
G01X25463Y2009D01*
G01X25521Y1831D01*
G01X25521Y1242D01*
G01X25913Y2481D02*
G01X25971Y2423D01*
G01X26029Y2481D01*
G01X25971Y2540D01*
G01X25913Y2481D01*
G01X25971Y2067D02*
G01X25971Y1242D01*
G01X27129Y1892D02*
G01X27010Y2009D01*
G01X26893Y2067D01*
G01X26715Y2067D01*
G01X26598Y2009D01*
G01X26479Y1892D01*
G01X26421Y1714D01*
G01X26421Y1595D01*
G01X26479Y1417D01*
G01X26598Y1300D01*
G01X26715Y1242D01*
G01X26893Y1242D01*
G01X27010Y1300D01*
G01X27129Y1417D01*
G01X28168Y1892D02*
G01X28110Y2009D01*
G01X27932Y2067D01*
G01X27757Y2067D01*
G01X27579Y2009D01*
G01X27518Y1892D01*
G01X27579Y1772D01*
G01X27696Y1714D01*
G01X27993Y1653D01*
G01X28110Y1595D01*
G01X28168Y1478D01*
G01X28168Y1417D01*
G01X28110Y1300D01*
G01X27932Y1242D01*
G01X27757Y1242D01*
G01X27579Y1300D01*
G01X27518Y1417D01*
G01X28618Y1536D02*
G01X28559Y1478D01*
G01X28618Y1417D01*
G01X28676Y1478D01*
G01X28618Y1536D01*
G01X29776Y1892D02*
G01X29659Y2009D01*
G01X29540Y2067D01*
G01X29362Y2067D01*
G01X29245Y2009D01*
G01X29126Y1892D01*
G01X29067Y1714D01*
G01X29067Y1595D01*
G01X29126Y1417D01*
G01X29245Y1300D01*
G01X29362Y1242D01*
G01X29540Y1242D01*
G01X29659Y1300D01*
G01X29776Y1417D01*
G01X30462Y2067D02*
G01X30342Y2009D01*
G01X30226Y1892D01*
G01X30167Y1714D01*
G01X30167Y1595D01*
G01X30226Y1417D01*
G01X30342Y1300D01*
G01X30462Y1242D01*
G01X30640Y1242D01*
G01X30756Y1300D01*
G01X30876Y1417D01*
G01X30934Y1595D01*
G01X30934Y1714D01*
G01X30876Y1892D01*
G01X30756Y2009D01*
G01X30640Y2067D01*
G01X30462Y2067D01*
G01X31325Y2067D02*
G01X31325Y1242D01*
G01X31325Y1831D02*
G01X31501Y2009D01*
G01X31620Y2067D01*
G01X31798Y2067D01*
G01X31915Y2009D01*
G01X31976Y1831D01*
G01X31976Y1242D01*
G01X31976Y1831D02*
G01X32151Y2009D01*
G01X32270Y2067D01*
G01X32448Y2067D01*
G01X32565Y2009D01*
G01X32623Y1831D01*
G01X32623Y1242D01*
G54D31*
G01X82712Y47934D02*
G01X82712Y47972D01*
G01X82750Y48044D01*
G01X82786Y48079D01*
G01X82859Y48117D01*
G01X83004Y48117D01*
G01X83075Y48079D01*
G01X83113Y48044D01*
G01X83149Y47972D01*
G01X83149Y47899D01*
G01X83113Y47825D01*
G01X83040Y47716D01*
G01X82677Y47353D01*
G01X83185Y47353D01*
G01X83789Y48117D02*
G01X83426Y47607D01*
G01X83972Y47607D01*
G01X83789Y48117D02*
G01X83789Y47353D01*
G01X82712Y45648D02*
G01X82712Y45686D01*
G01X82750Y45758D01*
G01X82786Y45793D01*
G01X82859Y45831D01*
G01X83004Y45831D01*
G01X83075Y45793D01*
G01X83113Y45758D01*
G01X83149Y45686D01*
G01X83149Y45613D01*
G01X83113Y45539D01*
G01X83040Y45430D01*
G01X82677Y45067D01*
G01X83185Y45067D01*
G01X83863Y45722D02*
G01X83825Y45793D01*
G01X83715Y45831D01*
G01X83644Y45831D01*
G01X83535Y45793D01*
G01X83461Y45686D01*
G01X83426Y45504D01*
G01X83426Y45321D01*
G01X83461Y45176D01*
G01X83535Y45102D01*
G01X83644Y45067D01*
G01X83680Y45067D01*
G01X83789Y45102D01*
G01X83863Y45176D01*
G01X83898Y45285D01*
G01X83898Y45321D01*
G01X83863Y45430D01*
G01X83789Y45504D01*
G01X83680Y45539D01*
G01X83644Y45539D01*
G01X83535Y45504D01*
G01X83461Y45430D01*
G01X83426Y45321D01*
G01X82712Y43108D02*
G01X82712Y43146D01*
G01X82750Y43218D01*
G01X82786Y43253D01*
G01X82859Y43291D01*
G01X83004Y43291D01*
G01X83075Y43253D01*
G01X83113Y43218D01*
G01X83149Y43146D01*
G01X83149Y43073D01*
G01X83113Y42999D01*
G01X83040Y42890D01*
G01X82677Y42527D01*
G01X83185Y42527D01*
G01X83606Y43291D02*
G01X83499Y43253D01*
G01X83461Y43182D01*
G01X83461Y43108D01*
G01X83499Y43037D01*
G01X83571Y42999D01*
G01X83715Y42964D01*
G01X83825Y42928D01*
G01X83898Y42854D01*
G01X83934Y42781D01*
G01X83934Y42672D01*
G01X83898Y42600D01*
G01X83863Y42562D01*
G01X83753Y42527D01*
G01X83606Y42527D01*
G01X83499Y42562D01*
G01X83461Y42600D01*
G01X83426Y42672D01*
G01X83426Y42781D01*
G01X83461Y42854D01*
G01X83535Y42928D01*
G01X83644Y42964D01*
G01X83789Y42999D01*
G01X83863Y43037D01*
G01X83898Y43108D01*
G01X83898Y43182D01*
G01X83863Y43253D01*
G01X83753Y43291D01*
G01X83606Y43291D01*
G01X82750Y40751D02*
G01X83149Y40751D01*
G01X82931Y40459D01*
G01X83040Y40459D01*
G01X83113Y40424D01*
G01X83149Y40388D01*
G01X83185Y40279D01*
G01X83185Y40205D01*
G01X83149Y40096D01*
G01X83075Y40022D01*
G01X82969Y39987D01*
G01X82859Y39987D01*
G01X82750Y40022D01*
G01X82712Y40060D01*
G01X82677Y40132D01*
G01X83644Y40751D02*
G01X83535Y40713D01*
G01X83461Y40606D01*
G01X83426Y40424D01*
G01X83426Y40314D01*
G01X83461Y40132D01*
G01X83535Y40022D01*
G01X83644Y39987D01*
G01X83715Y39987D01*
G01X83825Y40022D01*
G01X83898Y40132D01*
G01X83934Y40314D01*
G01X83934Y40424D01*
G01X83898Y40606D01*
G01X83825Y40713D01*
G01X83715Y40751D01*
G01X83644Y40751D01*
G01X94904Y50673D02*
G01X94904Y50711D01*
G01X94942Y50782D01*
G01X94978Y50817D01*
G01X95051Y50855D01*
G01X95196Y50855D01*
G01X95267Y50817D01*
G01X95305Y50782D01*
G01X95341Y50711D01*
G01X95341Y50637D01*
G01X95305Y50563D01*
G01X95232Y50454D01*
G01X94869Y50091D01*
G01X95377Y50091D01*
G01X95691Y50855D02*
G01X96090Y50855D01*
G01X95872Y50563D01*
G01X95981Y50563D01*
G01X96055Y50528D01*
G01X96090Y50492D01*
G01X96126Y50383D01*
G01X96126Y50309D01*
G01X96090Y50200D01*
G01X96017Y50126D01*
G01X95907Y50091D01*
G01X95798Y50091D01*
G01X95691Y50126D01*
G01X95653Y50165D01*
G01X95618Y50236D01*
G01X94904Y47934D02*
G01X94904Y47972D01*
G01X94942Y48044D01*
G01X94978Y48079D01*
G01X95051Y48117D01*
G01X95196Y48117D01*
G01X95267Y48079D01*
G01X95305Y48044D01*
G01X95341Y47972D01*
G01X95341Y47899D01*
G01X95305Y47825D01*
G01X95232Y47716D01*
G01X94869Y47353D01*
G01X95377Y47353D01*
G01X96055Y48117D02*
G01X95691Y48117D01*
G01X95653Y47790D01*
G01X95691Y47825D01*
G01X95798Y47863D01*
G01X95907Y47863D01*
G01X96017Y47825D01*
G01X96090Y47754D01*
G01X96126Y47645D01*
G01X96126Y47571D01*
G01X96090Y47462D01*
G01X96017Y47388D01*
G01X95907Y47353D01*
G01X95798Y47353D01*
G01X95691Y47388D01*
G01X95653Y47426D01*
G01X95618Y47498D01*
G01X94904Y45648D02*
G01X94904Y45686D01*
G01X94942Y45758D01*
G01X94978Y45793D01*
G01X95051Y45831D01*
G01X95196Y45831D01*
G01X95267Y45793D01*
G01X95305Y45758D01*
G01X95341Y45686D01*
G01X95341Y45613D01*
G01X95305Y45539D01*
G01X95232Y45430D01*
G01X94869Y45067D01*
G01X95377Y45067D01*
G01X96126Y45831D02*
G01X95763Y45067D01*
G01X95618Y45831D02*
G01X96126Y45831D01*
G01X94904Y43108D02*
G01X94904Y43146D01*
G01X94942Y43218D01*
G01X94978Y43253D01*
G01X95051Y43291D01*
G01X95196Y43291D01*
G01X95267Y43253D01*
G01X95305Y43218D01*
G01X95341Y43146D01*
G01X95341Y43073D01*
G01X95305Y42999D01*
G01X95232Y42890D01*
G01X94869Y42527D01*
G01X95377Y42527D01*
G01X96090Y43037D02*
G01X96055Y42928D01*
G01X95981Y42854D01*
G01X95872Y42819D01*
G01X95836Y42819D01*
G01X95727Y42854D01*
G01X95653Y42928D01*
G01X95618Y43037D01*
G01X95618Y43073D01*
G01X95653Y43182D01*
G01X95727Y43253D01*
G01X95836Y43291D01*
G01X95872Y43291D01*
G01X95981Y43253D01*
G01X96055Y43182D01*
G01X96090Y43037D01*
G01X96090Y42854D01*
G01X96055Y42672D01*
G01X95981Y42562D01*
G01X95872Y42527D01*
G01X95798Y42527D01*
G01X95691Y42562D01*
G01X95653Y42636D01*
G01X94942Y40751D02*
G01X95341Y40751D01*
G01X95123Y40459D01*
G01X95232Y40459D01*
G01X95305Y40424D01*
G01X95341Y40388D01*
G01X95377Y40279D01*
G01X95377Y40205D01*
G01X95341Y40096D01*
G01X95267Y40022D01*
G01X95161Y39987D01*
G01X95051Y39987D01*
G01X94942Y40022D01*
G01X94904Y40060D01*
G01X94869Y40132D01*
G01X95618Y40606D02*
G01X95691Y40642D01*
G01X95798Y40751D01*
G01X95798Y39987D01*
G01X94942Y38155D02*
G01X95341Y38155D01*
G01X95123Y37863D01*
G01X95232Y37863D01*
G01X95305Y37828D01*
G01X95341Y37792D01*
G01X95377Y37683D01*
G01X95377Y37609D01*
G01X95341Y37500D01*
G01X95267Y37426D01*
G01X95161Y37391D01*
G01X95051Y37391D01*
G01X94942Y37426D01*
G01X94904Y37465D01*
G01X94869Y37536D01*
G01X95691Y38155D02*
G01X96090Y38155D01*
G01X95872Y37863D01*
G01X95981Y37863D01*
G01X96055Y37828D01*
G01X96090Y37792D01*
G01X96126Y37683D01*
G01X96126Y37609D01*
G01X96090Y37500D01*
G01X96017Y37426D01*
G01X95907Y37391D01*
G01X95798Y37391D01*
G01X95691Y37426D01*
G01X95653Y37465D01*
G01X95618Y37536D01*
G01X94815Y35488D02*
G01X95214Y35488D01*
G01X94996Y35196D01*
G01X95105Y35196D01*
G01X95178Y35161D01*
G01X95214Y35125D01*
G01X95250Y35016D01*
G01X95250Y34942D01*
G01X95214Y34833D01*
G01X95140Y34759D01*
G01X95034Y34724D01*
G01X94924Y34724D01*
G01X94815Y34759D01*
G01X94777Y34798D01*
G01X94742Y34869D01*
G01X95928Y35488D02*
G01X95564Y35488D01*
G01X95526Y35161D01*
G01X95564Y35196D01*
G01X95671Y35234D01*
G01X95780Y35234D01*
G01X95890Y35196D01*
G01X95963Y35125D01*
G01X95999Y35016D01*
G01X95999Y34942D01*
G01X95963Y34833D01*
G01X95890Y34759D01*
G01X95780Y34724D01*
G01X95671Y34724D01*
G01X95564Y34759D01*
G01X95526Y34798D01*
G01X95491Y34869D01*
G01X94815Y33202D02*
G01X95214Y33202D01*
G01X94996Y32910D01*
G01X95105Y32910D01*
G01X95178Y32875D01*
G01X95214Y32839D01*
G01X95250Y32730D01*
G01X95250Y32656D01*
G01X95214Y32547D01*
G01X95140Y32473D01*
G01X95034Y32438D01*
G01X94924Y32438D01*
G01X94815Y32473D01*
G01X94777Y32512D01*
G01X94742Y32583D01*
G01X95999Y33202D02*
G01X95636Y32438D01*
G01X95491Y33202D02*
G01X95999Y33202D01*
G54D27*
G01X79248Y52451D02*
G01X79248Y51592D01*
G01X79248Y51592D02*
G01X79738Y51592D01*
G01X80010Y52451D02*
G01X80010Y51592D01*
G01X80010Y52451D02*
G01X80540Y52451D01*
G01X80010Y52042D02*
G01X80335Y52042D01*
G01X80010Y51592D02*
G01X80540Y51592D01*
G01X80810Y52451D02*
G01X80810Y51592D01*
G01X80810Y52451D02*
G01X81097Y52451D01*
G01X81219Y52410D01*
G01X81302Y52329D01*
G01X81343Y52247D01*
G01X81384Y52123D01*
G01X81384Y51920D01*
G01X81343Y51798D01*
G01X81302Y51714D01*
G01X81219Y51633D01*
G01X81097Y51592D01*
G01X80810Y51592D01*
G01X82021Y52329D02*
G01X82021Y51592D01*
G01X81653Y51960D02*
G01X82389Y51960D01*
G54D31*
G01X37084Y51490D02*
G01X36720Y50726D01*
G01X36576Y51490D02*
G01X37084Y51490D01*
G01X39552Y51381D02*
G01X39514Y51452D01*
G01X39408Y51490D01*
G01X39334Y51490D01*
G01X39225Y51452D01*
G01X39151Y51346D01*
G01X39116Y51163D01*
G01X39116Y50980D01*
G01X39151Y50835D01*
G01X39225Y50761D01*
G01X39334Y50726D01*
G01X39370Y50726D01*
G01X39479Y50761D01*
G01X39552Y50835D01*
G01X39588Y50944D01*
G01X39588Y50980D01*
G01X39552Y51089D01*
G01X39479Y51163D01*
G01X39370Y51198D01*
G01X39334Y51198D01*
G01X39225Y51163D01*
G01X39151Y51089D01*
G01X39116Y50980D01*
G01X42219Y51490D02*
G01X41856Y51490D01*
G01X41818Y51163D01*
G01X41856Y51198D01*
G01X41965Y51236D01*
G01X42075Y51236D01*
G01X42181Y51198D01*
G01X42255Y51127D01*
G01X42291Y51018D01*
G01X42291Y50944D01*
G01X42255Y50835D01*
G01X42181Y50761D01*
G01X42075Y50726D01*
G01X41965Y50726D01*
G01X41856Y50761D01*
G01X41818Y50800D01*
G01X41783Y50871D01*
G01X44686Y51490D02*
G01X44323Y50980D01*
G01X44869Y50980D01*
G01X44686Y51490D02*
G01X44686Y50726D01*
G01X46809Y51490D02*
G01X47208Y51490D01*
G01X46990Y51198D01*
G01X47099Y51198D01*
G01X47172Y51163D01*
G01X47208Y51127D01*
G01X47244Y51018D01*
G01X47244Y50944D01*
G01X47208Y50835D01*
G01X47134Y50761D01*
G01X47028Y50726D01*
G01X46918Y50726D01*
G01X46809Y50761D01*
G01X46771Y50800D01*
G01X46736Y50871D01*
G01X49311Y51308D02*
G01X49311Y51346D01*
G01X49349Y51417D01*
G01X49385Y51452D01*
G01X49458Y51490D01*
G01X49603Y51490D01*
G01X49674Y51452D01*
G01X49712Y51417D01*
G01X49748Y51346D01*
G01X49748Y51272D01*
G01X49712Y51198D01*
G01X49639Y51089D01*
G01X49276Y50726D01*
G01X49784Y50726D01*
G01X51943Y51346D02*
G01X52016Y51381D01*
G01X52125Y51490D01*
G01X52125Y50726D01*
G01X54701Y51490D02*
G01X54592Y51452D01*
G01X54518Y51346D01*
G01X54483Y51163D01*
G01X54483Y51054D01*
G01X54518Y50871D01*
G01X54592Y50761D01*
G01X54701Y50726D01*
G01X54775Y50726D01*
G01X54881Y50761D01*
G01X54955Y50871D01*
G01X54991Y51054D01*
G01X54991Y51163D01*
G01X54955Y51346D01*
G01X54881Y51452D01*
G01X54775Y51490D01*
G01X54701Y51490D01*
G01X13881Y51363D02*
G01X13589Y50599D01*
G01X13881Y51363D02*
G01X14170Y50599D01*
G01X13698Y50853D02*
G01X14061Y50853D01*
G01X14411Y51363D02*
G01X14411Y50599D01*
G01X14411Y51363D02*
G01X14737Y51363D01*
G01X14846Y51325D01*
G01X14884Y51290D01*
G01X14919Y51219D01*
G01X14919Y51145D01*
G01X14884Y51071D01*
G01X14846Y51036D01*
G01X14737Y51000D01*
G01X14411Y51000D01*
G01X14665Y51000D02*
G01X14919Y50599D01*
G01X15158Y51363D02*
G01X15158Y50599D01*
G01X15158Y51363D02*
G01X15633Y51363D01*
G01X15158Y51000D02*
G01X15450Y51000D01*
G01X15158Y50599D02*
G01X15633Y50599D01*
G01X15872Y51363D02*
G01X15872Y50599D01*
G01X15872Y51363D02*
G01X16344Y51363D01*
G01X15872Y51000D02*
G01X16164Y51000D01*
G01X17564Y51181D02*
G01X17526Y51254D01*
G01X17454Y51325D01*
G01X17381Y51363D01*
G01X17236Y51363D01*
G01X17162Y51325D01*
G01X17091Y51254D01*
G01X17053Y51181D01*
G01X17018Y51071D01*
G01X17018Y50891D01*
G01X17053Y50782D01*
G01X17091Y50708D01*
G01X17162Y50634D01*
G01X17236Y50599D01*
G01X17381Y50599D01*
G01X17454Y50634D01*
G01X17526Y50708D01*
G01X17564Y50782D01*
G01X17564Y50891D01*
G01X17381Y50891D02*
G01X17564Y50891D01*
G01X17802Y51363D02*
G01X17802Y50599D01*
G01X17802Y51363D02*
G01X18313Y50599D01*
G01X18313Y51363D02*
G01X18313Y50599D01*
G01X18552Y51363D02*
G01X18552Y50599D01*
G01X18552Y51363D02*
G01X18806Y51363D01*
G01X18915Y51325D01*
G01X18989Y51254D01*
G01X19024Y51181D01*
G01X19062Y51071D01*
G01X19062Y50891D01*
G01X19024Y50782D01*
G01X18989Y50708D01*
G01X18915Y50634D01*
G01X18806Y50599D01*
G01X18552Y50599D01*
G01X19939Y51219D02*
G01X20012Y51254D01*
G01X20121Y51363D01*
G01X20121Y50599D01*
G01X20434Y51363D02*
G01X20833Y51363D01*
G01X20614Y51071D01*
G01X20723Y51071D01*
G01X20797Y51036D01*
G01X20833Y51000D01*
G01X20868Y50891D01*
G01X20868Y50817D01*
G01X20833Y50708D01*
G01X20761Y50634D01*
G01X20652Y50599D01*
G01X20543Y50599D01*
G01X20434Y50634D01*
G01X20396Y50673D01*
G01X20360Y50744D01*
G01X22479Y51219D02*
G01X22552Y51254D01*
G01X22661Y51363D01*
G01X22661Y50599D01*
G01X22936Y51181D02*
G01X22936Y51219D01*
G01X22974Y51290D01*
G01X23009Y51325D01*
G01X23083Y51363D01*
G01X23228Y51363D01*
G01X23301Y51325D01*
G01X23337Y51290D01*
G01X23373Y51219D01*
G01X23373Y51145D01*
G01X23337Y51071D01*
G01X23263Y50962D01*
G01X22900Y50599D01*
G01X23408Y50599D01*
G01X24892Y51219D02*
G01X24965Y51254D01*
G01X25074Y51363D01*
G01X25074Y50599D01*
G01X25313Y51219D02*
G01X25387Y51254D01*
G01X25496Y51363D01*
G01X25496Y50599D01*
G01X27432Y51219D02*
G01X27505Y51254D01*
G01X27614Y51363D01*
G01X27614Y50599D01*
G01X28072Y51363D02*
G01X27962Y51325D01*
G01X27889Y51219D01*
G01X27853Y51036D01*
G01X27853Y50927D01*
G01X27889Y50744D01*
G01X27962Y50634D01*
G01X28072Y50599D01*
G01X28145Y50599D01*
G01X28254Y50634D01*
G01X28326Y50744D01*
G01X28361Y50927D01*
G01X28361Y51036D01*
G01X28326Y51219D01*
G01X28254Y51325D01*
G01X28145Y51363D01*
G01X28072Y51363D01*
G01X30571Y51109D02*
G01X30535Y51000D01*
G01X30462Y50927D01*
G01X30353Y50891D01*
G01X30317Y50891D01*
G01X30208Y50927D01*
G01X30134Y51000D01*
G01X30099Y51109D01*
G01X30099Y51145D01*
G01X30134Y51254D01*
G01X30208Y51325D01*
G01X30317Y51363D01*
G01X30353Y51363D01*
G01X30462Y51325D01*
G01X30535Y51254D01*
G01X30571Y51109D01*
G01X30571Y50927D01*
G01X30535Y50744D01*
G01X30462Y50634D01*
G01X30353Y50599D01*
G01X30281Y50599D01*
G01X30172Y50634D01*
G01X30134Y50708D01*
G01X32821Y51363D02*
G01X32712Y51325D01*
G01X32674Y51254D01*
G01X32674Y51181D01*
G01X32712Y51109D01*
G01X32783Y51071D01*
G01X32931Y51036D01*
G01X33037Y51000D01*
G01X33111Y50927D01*
G01X33147Y50853D01*
G01X33147Y50744D01*
G01X33111Y50673D01*
G01X33075Y50634D01*
G01X32966Y50599D01*
G01X32821Y50599D01*
G01X32712Y50634D01*
G01X32674Y50673D01*
G01X32639Y50744D01*
G01X32639Y50853D01*
G01X32674Y50927D01*
G01X32748Y51000D01*
G01X32857Y51036D01*
G01X33002Y51071D01*
G01X33075Y51109D01*
G01X33111Y51181D01*
G01X33111Y51254D01*
G01X33075Y51325D01*
G01X32966Y51363D01*
G01X32821Y51363D01*
G01X11303Y51325D02*
G01X11231Y51396D01*
G01X11122Y51435D01*
G01X10977Y51435D01*
G01X10868Y51396D01*
G01X10795Y51325D01*
G01X10795Y51252D01*
G01X10830Y51181D01*
G01X10868Y51142D01*
G01X10939Y51107D01*
G01X11158Y51033D01*
G01X11231Y50998D01*
G01X11267Y50962D01*
G01X11303Y50888D01*
G01X11303Y50779D01*
G01X11231Y50706D01*
G01X11122Y50670D01*
G01X10977Y50670D01*
G01X10868Y50706D01*
G01X10795Y50779D01*
G01X11544Y51435D02*
G01X11544Y50670D01*
G01X11544Y51435D02*
G01X11798Y51435D01*
G01X11907Y51396D01*
G01X11981Y51325D01*
G01X12016Y51252D01*
G01X12052Y51142D01*
G01X12052Y50962D01*
G01X12016Y50853D01*
G01X11981Y50779D01*
G01X11907Y50706D01*
G01X11798Y50670D01*
G01X11544Y50670D01*
G01X12583Y51435D02*
G01X12293Y50670D01*
G01X12583Y51435D02*
G01X12875Y50670D01*
G01X12402Y50924D02*
G01X12766Y50924D01*
G01X8382Y51452D02*
G01X8310Y51523D01*
G01X8201Y51562D01*
G01X8056Y51562D01*
G01X7947Y51523D01*
G01X7874Y51452D01*
G01X7874Y51379D01*
G01X7909Y51308D01*
G01X7947Y51269D01*
G01X8018Y51234D01*
G01X8237Y51160D01*
G01X8310Y51125D01*
G01X8346Y51089D01*
G01X8382Y51015D01*
G01X8382Y50906D01*
G01X8310Y50833D01*
G01X8201Y50797D01*
G01X8056Y50797D01*
G01X7947Y50833D01*
G01X7874Y50906D01*
G01X9169Y51379D02*
G01X9131Y51452D01*
G01X9060Y51523D01*
G01X8986Y51562D01*
G01X8841Y51562D01*
G01X8768Y51523D01*
G01X8696Y51452D01*
G01X8658Y51379D01*
G01X8623Y51269D01*
G01X8623Y51089D01*
G01X8658Y50980D01*
G01X8696Y50906D01*
G01X8768Y50833D01*
G01X8841Y50797D01*
G01X8986Y50797D01*
G01X9060Y50833D01*
G01X9131Y50906D01*
G01X9169Y50980D01*
G01X9408Y51562D02*
G01X9408Y50797D01*
G01X9408Y50797D02*
G01X9845Y50797D01*
G01X61849Y51473D02*
G01X61922Y51508D01*
G01X62031Y51617D01*
G01X62031Y50853D01*
G01X62707Y51617D02*
G01X62344Y51617D01*
G01X62306Y51290D01*
G01X62344Y51325D01*
G01X62453Y51363D01*
G01X62562Y51363D01*
G01X62671Y51325D01*
G01X62743Y51254D01*
G01X62778Y51145D01*
G01X62778Y51071D01*
G01X62743Y50962D01*
G01X62671Y50888D01*
G01X62562Y50853D01*
G01X62453Y50853D01*
G01X62344Y50888D01*
G01X62306Y50927D01*
G01X62270Y50998D01*
G01X64516Y51473D02*
G01X64589Y51508D01*
G01X64698Y51617D01*
G01X64698Y50853D01*
G01X65374Y51508D02*
G01X65338Y51579D01*
G01X65229Y51617D01*
G01X65156Y51617D01*
G01X65046Y51579D01*
G01X64973Y51473D01*
G01X64937Y51290D01*
G01X64937Y51107D01*
G01X64973Y50962D01*
G01X65046Y50888D01*
G01X65156Y50853D01*
G01X65191Y50853D01*
G01X65300Y50888D01*
G01X65374Y50962D01*
G01X65410Y51071D01*
G01X65410Y51107D01*
G01X65374Y51216D01*
G01X65300Y51290D01*
G01X65191Y51325D01*
G01X65156Y51325D01*
G01X65046Y51290D01*
G01X64973Y51216D01*
G01X64937Y51107D01*
G01X67056Y51473D02*
G01X67129Y51508D01*
G01X67238Y51617D01*
G01X67238Y50853D01*
G01X67985Y51617D02*
G01X67622Y50853D01*
G01X67477Y51617D02*
G01X67985Y51617D01*
G01X69469Y51473D02*
G01X69542Y51508D01*
G01X69651Y51617D01*
G01X69651Y50853D01*
G01X70073Y51617D02*
G01X69964Y51579D01*
G01X69926Y51508D01*
G01X69926Y51435D01*
G01X69964Y51363D01*
G01X70035Y51325D01*
G01X70182Y51290D01*
G01X70291Y51254D01*
G01X70363Y51181D01*
G01X70398Y51107D01*
G01X70398Y50998D01*
G01X70363Y50927D01*
G01X70327Y50888D01*
G01X70218Y50853D01*
G01X70073Y50853D01*
G01X69964Y50888D01*
G01X69926Y50927D01*
G01X69890Y50998D01*
G01X69890Y51107D01*
G01X69926Y51181D01*
G01X69999Y51254D01*
G01X70109Y51290D01*
G01X70253Y51325D01*
G01X70327Y51363D01*
G01X70363Y51435D01*
G01X70363Y51508D01*
G01X70327Y51579D01*
G01X70218Y51617D01*
G01X70073Y51617D01*
G01X72009Y51473D02*
G01X72082Y51508D01*
G01X72191Y51617D01*
G01X72191Y50853D01*
G01X72903Y51363D02*
G01X72867Y51254D01*
G01X72793Y51181D01*
G01X72684Y51145D01*
G01X72649Y51145D01*
G01X72539Y51181D01*
G01X72466Y51254D01*
G01X72430Y51363D01*
G01X72430Y51399D01*
G01X72466Y51508D01*
G01X72539Y51579D01*
G01X72649Y51617D01*
G01X72684Y51617D01*
G01X72793Y51579D01*
G01X72867Y51508D01*
G01X72903Y51363D01*
G01X72903Y51181D01*
G01X72867Y50998D01*
G01X72793Y50888D01*
G01X72684Y50853D01*
G01X72613Y50853D01*
G01X72504Y50888D01*
G01X72466Y50962D01*
G01X74711Y51435D02*
G01X74711Y51473D01*
G01X74749Y51544D01*
G01X74785Y51579D01*
G01X74858Y51617D01*
G01X75003Y51617D01*
G01X75074Y51579D01*
G01X75112Y51544D01*
G01X75148Y51473D01*
G01X75148Y51399D01*
G01X75112Y51325D01*
G01X75039Y51216D01*
G01X74676Y50853D01*
G01X75184Y50853D01*
G01X75643Y51617D02*
G01X75534Y51579D01*
G01X75460Y51473D01*
G01X75425Y51290D01*
G01X75425Y51181D01*
G01X75460Y50998D01*
G01X75534Y50888D01*
G01X75643Y50853D01*
G01X75714Y50853D01*
G01X75824Y50888D01*
G01X75897Y50998D01*
G01X75933Y51181D01*
G01X75933Y51290D01*
G01X75897Y51473D01*
G01X75824Y51579D01*
G01X75714Y51617D01*
G01X75643Y51617D01*
G01X77251Y51435D02*
G01X77251Y51473D01*
G01X77289Y51544D01*
G01X77325Y51579D01*
G01X77398Y51617D01*
G01X77543Y51617D01*
G01X77614Y51579D01*
G01X77652Y51544D01*
G01X77688Y51473D01*
G01X77688Y51399D01*
G01X77652Y51325D01*
G01X77579Y51216D01*
G01X77216Y50853D01*
G01X77724Y50853D01*
G01X77965Y51473D02*
G01X78038Y51508D01*
G01X78145Y51617D01*
G01X78145Y50853D01*
G01X41948Y7167D02*
G01X41656Y6403D01*
G01X41948Y7167D02*
G01X42237Y6403D01*
G01X41765Y6657D02*
G01X42128Y6657D01*
G01X42694Y7167D02*
G01X42585Y7129D01*
G01X42514Y7023D01*
G01X42478Y6840D01*
G01X42478Y6731D01*
G01X42514Y6548D01*
G01X42585Y6438D01*
G01X42694Y6403D01*
G01X42768Y6403D01*
G01X42877Y6438D01*
G01X42951Y6548D01*
G01X42986Y6731D01*
G01X42986Y6840D01*
G01X42951Y7023D01*
G01X42877Y7129D01*
G01X42768Y7167D01*
G01X42694Y7167D01*
G01X44742Y7239D02*
G01X44450Y6474D01*
G01X44742Y7239D02*
G01X45031Y6474D01*
G01X44559Y6728D02*
G01X44922Y6728D01*
G01X45272Y7094D02*
G01X45344Y7129D01*
G01X45453Y7239D01*
G01X45453Y6474D01*
G01X47155Y7167D02*
G01X46863Y6403D01*
G01X47155Y7167D02*
G01X47444Y6403D01*
G01X46972Y6657D02*
G01X47335Y6657D01*
G01X47721Y6985D02*
G01X47721Y7023D01*
G01X47757Y7094D01*
G01X47792Y7129D01*
G01X47866Y7167D01*
G01X48011Y7167D01*
G01X48084Y7129D01*
G01X48120Y7094D01*
G01X48158Y7023D01*
G01X48158Y6949D01*
G01X48120Y6875D01*
G01X48049Y6766D01*
G01X47685Y6403D01*
G01X48193Y6403D01*
G01X49695Y7167D02*
G01X49403Y6403D01*
G01X49695Y7167D02*
G01X49984Y6403D01*
G01X49512Y6657D02*
G01X49875Y6657D01*
G01X50297Y7167D02*
G01X50698Y7167D01*
G01X50479Y6875D01*
G01X50589Y6875D01*
G01X50660Y6840D01*
G01X50698Y6804D01*
G01X50733Y6695D01*
G01X50733Y6621D01*
G01X50698Y6512D01*
G01X50624Y6438D01*
G01X50515Y6403D01*
G01X50406Y6403D01*
G01X50297Y6438D01*
G01X50261Y6477D01*
G01X50225Y6548D01*
G01X52108Y7167D02*
G01X51816Y6403D01*
G01X52108Y7167D02*
G01X52397Y6403D01*
G01X51925Y6657D02*
G01X52288Y6657D01*
G01X53002Y7167D02*
G01X52638Y6657D01*
G01X53182Y6657D01*
G01X53002Y7167D02*
G01X53002Y6403D01*
G01X54648Y7167D02*
G01X54356Y6403D01*
G01X54648Y7167D02*
G01X54937Y6403D01*
G01X54465Y6657D02*
G01X54828Y6657D01*
G01X55613Y7167D02*
G01X55250Y7167D01*
G01X55214Y6840D01*
G01X55250Y6875D01*
G01X55359Y6913D01*
G01X55468Y6913D01*
G01X55577Y6875D01*
G01X55651Y6804D01*
G01X55686Y6695D01*
G01X55686Y6621D01*
G01X55651Y6512D01*
G01X55577Y6438D01*
G01X55468Y6403D01*
G01X55359Y6403D01*
G01X55250Y6438D01*
G01X55214Y6477D01*
G01X55178Y6548D01*
G01X57315Y7167D02*
G01X57023Y6403D01*
G01X57315Y7167D02*
G01X57604Y6403D01*
G01X57132Y6657D02*
G01X57495Y6657D01*
G01X58280Y7058D02*
G01X58244Y7129D01*
G01X58135Y7167D01*
G01X58061Y7167D01*
G01X57952Y7129D01*
G01X57881Y7023D01*
G01X57845Y6840D01*
G01X57845Y6657D01*
G01X57881Y6512D01*
G01X57952Y6438D01*
G01X58061Y6403D01*
G01X58099Y6403D01*
G01X58209Y6438D01*
G01X58280Y6512D01*
G01X58318Y6621D01*
G01X58318Y6657D01*
G01X58280Y6766D01*
G01X58209Y6840D01*
G01X58099Y6875D01*
G01X58061Y6875D01*
G01X57952Y6840D01*
G01X57881Y6766D01*
G01X57845Y6657D01*
G01X59855Y7167D02*
G01X59563Y6403D01*
G01X59855Y7167D02*
G01X60144Y6403D01*
G01X59672Y6657D02*
G01X60035Y6657D01*
G01X60893Y7167D02*
G01X60530Y6403D01*
G01X60385Y7167D02*
G01X60893Y7167D01*
G01X64300Y7167D02*
G01X64008Y6403D01*
G01X64300Y7167D02*
G01X64589Y6403D01*
G01X64117Y6657D02*
G01X64480Y6657D01*
G01X65011Y7167D02*
G01X64902Y7129D01*
G01X64866Y7058D01*
G01X64866Y6985D01*
G01X64902Y6913D01*
G01X64975Y6875D01*
G01X65120Y6840D01*
G01X65229Y6804D01*
G01X65303Y6731D01*
G01X65338Y6657D01*
G01X65338Y6548D01*
G01X65303Y6477D01*
G01X65265Y6438D01*
G01X65156Y6403D01*
G01X65011Y6403D01*
G01X64902Y6438D01*
G01X64866Y6477D01*
G01X64830Y6548D01*
G01X64830Y6657D01*
G01X64866Y6731D01*
G01X64937Y6804D01*
G01X65046Y6840D01*
G01X65194Y6875D01*
G01X65265Y6913D01*
G01X65303Y6985D01*
G01X65303Y7058D01*
G01X65265Y7129D01*
G01X65156Y7167D01*
G01X65011Y7167D01*
G01X66840Y7167D02*
G01X66548Y6403D01*
G01X66840Y7167D02*
G01X67129Y6403D01*
G01X66657Y6657D02*
G01X67020Y6657D01*
G01X67843Y6913D02*
G01X67805Y6804D01*
G01X67734Y6731D01*
G01X67624Y6695D01*
G01X67586Y6695D01*
G01X67477Y6731D01*
G01X67406Y6804D01*
G01X67370Y6913D01*
G01X67370Y6949D01*
G01X67406Y7058D01*
G01X67477Y7129D01*
G01X67586Y7167D01*
G01X67624Y7167D01*
G01X67734Y7129D01*
G01X67805Y7058D01*
G01X67843Y6913D01*
G01X67843Y6731D01*
G01X67805Y6548D01*
G01X67734Y6438D01*
G01X67624Y6403D01*
G01X67551Y6403D01*
G01X67442Y6438D01*
G01X67406Y6512D01*
G01X69507Y7167D02*
G01X69215Y6403D01*
G01X69507Y7167D02*
G01X69796Y6403D01*
G01X69324Y6657D02*
G01X69687Y6657D01*
G01X70037Y7023D02*
G01X70109Y7058D01*
G01X70218Y7167D01*
G01X70218Y6403D01*
G01X70678Y7167D02*
G01X70568Y7129D01*
G01X70495Y7023D01*
G01X70459Y6840D01*
G01X70459Y6731D01*
G01X70495Y6548D01*
G01X70568Y6438D01*
G01X70678Y6403D01*
G01X70749Y6403D01*
G01X70858Y6438D01*
G01X70932Y6548D01*
G01X70967Y6731D01*
G01X70967Y6840D01*
G01X70932Y7023D01*
G01X70858Y7129D01*
G01X70749Y7167D01*
G01X70678Y7167D01*
G01X72047Y7167D02*
G01X71755Y6403D01*
G01X72047Y7167D02*
G01X72336Y6403D01*
G01X71864Y6657D02*
G01X72227Y6657D01*
G01X72577Y7023D02*
G01X72649Y7058D01*
G01X72758Y7167D01*
G01X72758Y6403D01*
G01X72999Y7023D02*
G01X73070Y7058D01*
G01X73179Y7167D01*
G01X73179Y6403D01*
G01X74460Y7167D02*
G01X74168Y6403D01*
G01X74460Y7167D02*
G01X74749Y6403D01*
G01X74277Y6657D02*
G01X74640Y6657D01*
G01X74990Y7023D02*
G01X75062Y7058D01*
G01X75171Y7167D01*
G01X75171Y6403D01*
G01X75448Y6985D02*
G01X75448Y7023D01*
G01X75483Y7094D01*
G01X75521Y7129D01*
G01X75592Y7167D01*
G01X75737Y7167D01*
G01X75811Y7129D01*
G01X75846Y7094D01*
G01X75885Y7023D01*
G01X75885Y6949D01*
G01X75846Y6875D01*
G01X75775Y6766D01*
G01X75412Y6403D01*
G01X75920Y6403D01*
G01X77000Y7167D02*
G01X76708Y6403D01*
G01X77000Y7167D02*
G01X77289Y6403D01*
G01X76817Y6657D02*
G01X77180Y6657D01*
G01X77530Y7023D02*
G01X77602Y7058D01*
G01X77711Y7167D01*
G01X77711Y6403D01*
G01X78023Y7167D02*
G01X78425Y7167D01*
G01X78206Y6875D01*
G01X78315Y6875D01*
G01X78386Y6840D01*
G01X78425Y6804D01*
G01X78460Y6695D01*
G01X78460Y6621D01*
G01X78425Y6512D01*
G01X78351Y6438D01*
G01X78242Y6403D01*
G01X78132Y6403D01*
G01X78023Y6438D01*
G01X77988Y6477D01*
G01X77952Y6548D01*
G01X79667Y7167D02*
G01X79375Y6403D01*
G01X79667Y7167D02*
G01X79956Y6403D01*
G01X79484Y6657D02*
G01X79847Y6657D01*
G01X80197Y7023D02*
G01X80269Y7058D01*
G01X80378Y7167D01*
G01X80378Y6403D01*
G01X80982Y7167D02*
G01X80619Y6657D01*
G01X81163Y6657D01*
G01X80982Y7167D02*
G01X80982Y6403D01*
G01X82207Y7167D02*
G01X81915Y6403D01*
G01X82207Y7167D02*
G01X82496Y6403D01*
G01X82024Y6657D02*
G01X82387Y6657D01*
G01X82737Y7023D02*
G01X82809Y7058D01*
G01X82918Y7167D01*
G01X82918Y6403D01*
G01X83593Y7167D02*
G01X83230Y7167D01*
G01X83195Y6840D01*
G01X83230Y6875D01*
G01X83339Y6913D01*
G01X83449Y6913D01*
G01X83558Y6875D01*
G01X83632Y6804D01*
G01X83667Y6695D01*
G01X83667Y6621D01*
G01X83632Y6512D01*
G01X83558Y6438D01*
G01X83449Y6403D01*
G01X83339Y6403D01*
G01X83230Y6438D01*
G01X83195Y6477D01*
G01X83159Y6548D01*
G54D27*
G01X19431Y7698D02*
G01X19431Y7287D01*
G01X19471Y7165D01*
G01X19552Y7124D01*
G01X19677Y7124D01*
G01X19758Y7165D01*
G01X19880Y7287D01*
G01X19880Y7698D02*
G01X19880Y7124D01*
G01X20149Y7698D02*
G01X20149Y6837D01*
G01X20149Y7574D02*
G01X20233Y7655D01*
G01X20314Y7698D01*
G01X20436Y7698D01*
G01X20518Y7655D01*
G01X20601Y7574D01*
G01X20642Y7452D01*
G01X20642Y7371D01*
G01X20601Y7246D01*
G01X20518Y7165D01*
G01X20436Y7124D01*
G01X20314Y7124D01*
G01X20233Y7165D01*
G01X20149Y7246D01*
G01X21663Y7983D02*
G01X21663Y7287D01*
G01X21704Y7165D01*
G01X21788Y7124D01*
G01X21869Y7124D01*
G01X21541Y7698D02*
G01X21828Y7698D01*
G01X22344Y7698D02*
G01X22263Y7655D01*
G01X22179Y7574D01*
G01X22138Y7452D01*
G01X22138Y7371D01*
G01X22179Y7246D01*
G01X22263Y7165D01*
G01X22344Y7124D01*
G01X22466Y7124D01*
G01X22547Y7165D01*
G01X22628Y7246D01*
G01X22672Y7371D01*
G01X22672Y7452D01*
G01X22628Y7574D01*
G01X22547Y7655D01*
G01X22466Y7698D01*
G01X22344Y7698D01*
G01X23652Y7983D02*
G01X24102Y7983D01*
G01X23858Y7655D01*
G01X23980Y7655D01*
G01X24061Y7614D01*
G01X24102Y7574D01*
G01X24142Y7452D01*
G01X24142Y7371D01*
G01X24102Y7246D01*
G01X24020Y7165D01*
G01X23898Y7124D01*
G01X23774Y7124D01*
G01X23652Y7165D01*
G01X23611Y7205D01*
G01X23571Y7287D01*
G01X24742Y7983D02*
G01X24414Y7124D01*
G01X24742Y7983D02*
G01X25067Y7124D01*
G01X24536Y7411D02*
G01X24945Y7411D01*
G54D10*
G75*
G01X6825Y11811D02*
G03X6825Y11811I-1999J0D01*
G01*
G75*
G01X6825Y6731D02*
G03X6825Y6731I-1999J0D01*
G01*
G75*
G01X6825Y23495D02*
G03X6825Y23495I-1999J0D01*
G01*
G75*
G01X6825Y18415D02*
G03X6825Y18415I-1999J0D01*
G01*
G75*
G01X80005Y22860D02*
G03X80005Y22860I-3150J0D01*
G01*
G75*
G01X26538Y47244D02*
G03X26538Y47244I-3150J0D01*
G01*
G75*
G01X34011Y37358D02*
G03X34011Y37358I-3150J0D01*
G01*
G75*
G01X56871Y36850D02*
G03X56871Y36850I-3150J0D01*
G01*
G75*
G01X56998Y15641D02*
G03X56998Y15641I-3150J0D01*
G01*
G75*
G01X34011Y15641D02*
G03X34011Y15641I-3150J0D01*
G01*
M00*
M02*
