;Layer: Drill PTH
;EasyEDA v6.1.49, Tue, 28 May 2019 14:16:05 GMT
;625ac418817b4d458788558be5a2e594,cfe1dd9c90504c3bbdd6ef614714b9c7,10
;Gerber Generator version 0.2
M48
METRIC,LZ,000.000
;Holesize 1 = 0.891 METRIC
T01C0.891
;Holesize 2 = 0.901 METRIC
T02C0.901
;Holesize 3 = 0.914 METRIC
T03C0.914
;Holesize 4 = 0.915 METRIC
T04C0.915
;Holesize 5 = 1.000 METRIC
T05C1.000
;Holesize 6 = 1.016 METRIC
T06C1.016
;Holesize 7 = 1.083 METRIC
T07C1.083
;Holesize 8 = 1.501 METRIC
T08C1.501
%
G05
G90
T01
X+014351Y+042291
X+021971Y+042291
X+057531Y+043434
X+054991Y+043434
X+052451Y+043434
X+060071Y+043434
X+062611Y+043434
X+065151Y+043434
X+067691Y+043434
X+070231Y+043434
X+070231Y+030734
X+067691Y+030734
X+065151Y+030734
X+062611Y+030734
X+060071Y+030734
X+057531Y+030734
X+054991Y+030734
X+052451Y+030734
X+057658Y+022098
X+055118Y+022098
X+052578Y+022098
X+060198Y+022098
X+062738Y+022098
X+065278Y+022098
X+067818Y+022098
X+070358Y+022098
X+070358Y+009398
X+067818Y+009398
X+065278Y+009398
X+062738Y+009398
X+060198Y+009398
X+057658Y+009398
X+055118Y+009398
X+052578Y+009398
X+034671Y+022098
X+032131Y+022098
X+029591Y+022098
X+037211Y+022098
X+039751Y+022098
X+042291Y+022098
X+044831Y+022098
X+047371Y+022098
X+047371Y+009398
X+044831Y+009398
X+042291Y+009398
X+039751Y+009398
X+037211Y+009398
X+034671Y+009398
X+032131Y+009398
X+029591Y+009398
X+034671Y+043434
X+032131Y+043434
X+029591Y+043434
X+037211Y+043434
X+039751Y+043434
X+042291Y+043434
X+044831Y+043434
X+047371Y+043434
X+047371Y+030734
X+044831Y+030734
X+042291Y+030734
X+039751Y+030734
X+037211Y+030734
X+034671Y+030734
X+032131Y+030734
X+029591Y+030734
X+034671Y+025819
X+037211Y+025819
X+039751Y+025819
X+042291Y+025819
X+057658Y+025692
X+060198Y+025692
X+062738Y+025692
X+065278Y+025692
X+034671Y+047282
X+037211Y+047282
X+039751Y+047282
X+042291Y+047282
X+057531Y+047282
X+060071Y+047282
X+062611Y+047282
X+065151Y+047282
X+014973Y+048641
X+017513Y+048641
X+020966Y+012824
X+020966Y+015364
X+020966Y+017904
X+023506Y+012824
X+023506Y+015364
X+023506Y+017904
X+020966Y+020444
X+020966Y+022984
X+023506Y+020444
X+023506Y+022984
X+020966Y+025524
X+020966Y+028064
X+023506Y+025524
X+023506Y+028064
X+020966Y+010284
X+023506Y+010284
X+079883Y+031369
X+079883Y+038989
X+082296Y+031369
X+082296Y+038989
X+014097Y+009271
X+014097Y+016891
X+016764Y+009271
X+016764Y+016891
X+080645Y+046850
X+080645Y+049390
X+069088Y+049403
X+076708Y+049403
X+036703Y+038481
X+039243Y+038481
X+041783Y+038481
X+036703Y+035941
X+039243Y+035941
X+041783Y+035941
X+059436Y+038354
X+061976Y+038354
X+064516Y+038354
X+059436Y+035814
X+061976Y+035814
X+064516Y+035814
X+036703Y+017018
X+039243Y+017018
X+041783Y+017018
X+036703Y+014478
X+039243Y+014478
X+041783Y+014478
X+059563Y+016891
X+062103Y+016891
X+064643Y+016891
X+059563Y+014351
X+062103Y+014351
X+064643Y+014351
T02
X+075562Y+016764G85X+075567Y+016764
X+078102Y+016764G85X+078107Y+016764
X+075562Y+014224G85X+075567Y+014224
X+078102Y+014224G85X+078107Y+014224
X+075562Y+011684G85X+075567Y+011684
X+078102Y+011684G85X+078107Y+011684
X+075562Y+009144G85X+075567Y+009144
X+078102Y+009144G85X+078107Y+009144
X+078105Y+022860
X+075605Y+022860
X+087757Y+032639
X+085217Y+032639
X+087757Y+035179
X+085217Y+035179
X+087757Y+037719
X+085217Y+037719
X+087757Y+040259
X+085217Y+040259
X+087757Y+042799
X+085217Y+042799
X+087757Y+045339
X+085217Y+045339
X+087757Y+047879
X+085217Y+047879
X+087757Y+050419
X+085217Y+050419
X+087757Y+012319
X+085217Y+012319
X+087757Y+014859
X+085217Y+014859
X+087757Y+017399
X+085217Y+017399
X+087757Y+019939
X+085217Y+019939
X+087757Y+022479
X+085217Y+022479
X+087757Y+025019
X+085217Y+025019
X+087757Y+027559
X+085217Y+027559
X+087757Y+030099
X+085217Y+030099
X+085217Y+009779
X+087757Y+009779
X+085217Y+052959
X+087757Y+052959
X+024638Y+047244
X+022138Y+047244
X+030861Y+038608
X+030861Y+036108
X+053721Y+038100
X+053721Y+035600
X+053848Y+016891
X+053848Y+014391
X+030861Y+016891
X+030861Y+014391
X+093345Y+032639
X+090805Y+032639
X+093345Y+035179
X+090805Y+035179
X+093345Y+037719
X+090805Y+037719
X+093345Y+040259
X+090805Y+040259
X+093345Y+042799
X+090805Y+042799
X+093345Y+045339
X+090805Y+045339
X+093345Y+047879
X+090805Y+047879
X+093345Y+050419
X+090805Y+050419
T03
X+016521Y+028114
X+016521Y+025574
X+016521Y+023034
X+016521Y+020494
X+013981Y+028114
X+013981Y+025574
X+013981Y+023034
T04
X+016129Y+035433
X+018669Y+035433
X+021209Y+035433
T05
X+075184Y+044450
X+075184Y+041910
X+075184Y+039370
X+075184Y+036830
X+075184Y+034290
X+075184Y+031750
X+015113Y+052959
X+012573Y+052959
X+067437Y+004699
X+069977Y+004699
X+072517Y+004699
X+075057Y+004699
X+077597Y+004699
X+080137Y+004699
X+082677Y+004699
X+064897Y+004699
X+062357Y+052959
X+064897Y+052959
X+067437Y+052959
X+069977Y+052959
X+072517Y+052959
X+075057Y+052959
X+077597Y+052959
X+059817Y+052959
X+044577Y+004699
X+047117Y+004699
X+049657Y+004699
X+052197Y+004699
X+054737Y+004699
X+057277Y+004699
X+059817Y+004699
X+042037Y+004699
X+039497Y+052959
X+042037Y+052959
X+044577Y+052959
X+047117Y+052959
X+049657Y+052959
X+052197Y+052959
X+054737Y+052959
X+036957Y+052959
X+017653Y+052959
X+020193Y+052959
X+022733Y+052959
X+025273Y+052959
X+027813Y+052959
X+030353Y+052959
X+032893Y+052959
X+024257Y+004699
X+026797Y+004699
X+029337Y+004699
X+031877Y+004699
X+034417Y+004699
X+036957Y+004699
X+021717Y+004699
X+019177Y+004699
X+013981Y+020494
X+067437Y+001905
X+069977Y+001905
X+072517Y+001905
X+075057Y+001905
X+077597Y+001905
X+080137Y+001905
X+082677Y+001905
X+064897Y+001905
X+044577Y+001905
X+047117Y+001905
X+049657Y+001905
X+052197Y+001905
X+054737Y+001905
X+057277Y+001905
X+059817Y+001905
X+015113Y+055880
X+012573Y+055880
X+062357Y+055880
X+064897Y+055880
X+067437Y+055880
X+069977Y+055880
X+072517Y+055880
X+075057Y+055880
X+077597Y+055880
X+039497Y+055880
X+042037Y+055880
X+044577Y+055880
X+047117Y+055880
X+049657Y+055880
X+052197Y+055880
X+054737Y+055880
X+036957Y+055880
X+017653Y+055880
X+020193Y+055880
X+022733Y+055880
X+025273Y+055880
X+027813Y+055880
X+030353Y+055880
X+032893Y+055880
T06
X+008890Y+039725G85X+008890Y+039776
X+008890Y+042288G85X+008890Y+042293
X+008890Y+044828G85X+008890Y+044833
T07
X+010033Y+052959
X+010033Y+055880
T08
X+004826Y+011811
X+004826Y+006731
X+004826Y+023495
X+004826Y+018415
M30
